<svg width="26" height="26" viewBox="0 0 26 26" fill="none" xmlns="http://www.w3.org/2000/svg">
<path d="M18.2052 8.96512C18.8513 8.96512 19.3752 8.44129 19.3752 7.79512C19.3752 7.14895 18.8513 6.62512 18.2052 6.62512C17.559 6.62512 17.0352 7.14895 17.0352 7.79512C17.0352 8.44129 17.559 8.96512 18.2052 8.96512Z" fill="#666666"/>
<path d="M13.0008 7.99341C12.0106 7.99341 11.0426 8.28704 10.2192 8.83718C9.3959 9.38731 8.75419 10.1692 8.37525 11.0841C7.99631 11.9989 7.89716 13.0056 8.09034 13.9768C8.28353 14.948 8.76036 15.8401 9.46055 16.5403C10.1607 17.2404 11.0528 17.7173 12.024 17.9105C12.9952 18.1036 14.0019 18.0045 14.9167 17.6256C15.8316 17.2466 16.6135 16.6049 17.1636 15.7816C17.7138 14.9582 18.0074 13.9903 18.0074 13C18.0074 11.6722 17.4799 10.3987 16.541 9.45981C15.6021 8.52089 14.3286 7.99341 13.0008 7.99341ZM13.0008 16.25C12.358 16.25 11.7296 16.0594 11.1952 15.7023C10.6607 15.3452 10.2441 14.8376 9.99816 14.2438C9.75217 13.6499 9.68781 12.9964 9.81322 12.366C9.93862 11.7356 10.2482 11.1565 10.7027 10.7019C11.1572 10.2474 11.7363 9.93788 12.3667 9.81248C12.9972 9.68708 13.6506 9.75144 14.2445 9.99742C14.8383 10.2434 15.3459 10.66 15.703 11.1944C16.0602 11.7289 16.2508 12.3572 16.2508 13C16.2508 13.862 15.9084 14.6886 15.2989 15.2981C14.6894 15.9076 13.8627 16.25 13.0008 16.25Z" fill="#666666"/>
<path d="M13 5.00663C15.6032 5.00663 15.912 5.01637 16.9398 5.0635C17.558 5.07084 18.1703 5.18434 18.7501 5.39906C19.1707 5.56131 19.5526 5.80982 19.8714 6.12859C20.1902 6.44736 20.4387 6.82934 20.6009 7.24994C20.8157 7.82968 20.9292 8.442 20.9365 9.06019C20.9836 10.088 20.9934 10.3967 20.9934 13.0008C20.9934 15.6049 20.9836 15.912 20.9365 16.9398C20.9292 17.558 20.8157 18.1703 20.6009 18.7501C20.4387 19.1707 20.1902 19.5526 19.8714 19.8714C19.5526 20.1902 19.1707 20.4387 18.7501 20.6009C18.1703 20.8157 17.558 20.9292 16.9398 20.9365C15.912 20.9836 15.6032 20.9934 13 20.9934C10.3967 20.9934 10.088 20.9836 9.06019 20.9365C8.442 20.9292 7.82968 20.8157 7.24994 20.6009C6.82934 20.4387 6.44736 20.1902 6.12859 19.8714C5.80982 19.5526 5.56131 19.1707 5.39906 18.7501C5.18434 18.1703 5.07084 17.558 5.0635 16.9398C5.01637 15.912 5.00663 15.6032 5.00663 13C5.00663 10.3967 5.01637 10.088 5.0635 9.06019C5.07084 8.442 5.18434 7.82968 5.39906 7.24994C5.56131 6.82934 5.80982 6.44736 6.12859 6.12859C6.44736 5.80982 6.82934 5.56131 7.24994 5.39906C7.82968 5.18434 8.442 5.07084 9.06019 5.0635C10.088 5.01637 10.3967 5.00663 13 5.00663ZM13 3.25C10.3521 3.25 10.0198 3.26138 8.97975 3.3085C8.17113 3.32483 7.37113 3.47813 6.61375 3.76188C5.96596 4.01237 5.37766 4.39544 4.88655 4.88655C4.39544 5.37766 4.01237 5.96596 3.76188 6.61375C3.47803 7.37138 3.32474 8.17167 3.3085 8.98056C3.26138 10.0206 3.25 10.3513 3.25 13C3.25 15.6488 3.26138 15.9803 3.3085 17.0203C3.32483 17.8289 3.47813 18.6289 3.76188 19.3862C4.01237 20.034 4.39544 20.6223 4.88655 21.1134C5.37766 21.6046 5.96596 21.9876 6.61375 22.2381C7.37138 22.522 8.17167 22.6753 8.98056 22.6915C10.0206 22.7386 10.3521 22.75 13 22.75C15.6479 22.75 15.9803 22.7386 17.0203 22.6915C17.8291 22.6753 18.6294 22.522 19.3871 22.2381C20.0348 21.9876 20.6232 21.6046 21.1143 21.1134C21.6054 20.6223 21.9884 20.034 22.2389 19.3862C22.5225 18.6286 22.6755 17.8283 22.6915 17.0194C22.7386 15.9794 22.75 15.6488 22.75 13C22.75 10.3513 22.7386 10.0198 22.6915 8.97975C22.6752 8.17113 22.5219 7.37113 22.2381 6.61375C21.9876 5.96596 21.6046 5.37766 21.1134 4.88655C20.6223 4.39544 20.034 4.01237 19.3862 3.76188C18.6286 3.47831 17.8283 3.32529 17.0194 3.30931C15.9794 3.26056 15.6488 3.25 13 3.25Z" fill="#666666"/>
</svg>
