<svg width="36" height="36" viewBox="0 0 36 36" fill="none" xmlns="http://www.w3.org/2000/svg">
<path d="M15.8668 20.2118C16.4433 20.7883 17.2252 21.1122 18.0405 21.1122C18.8558 21.1122 19.6377 20.7883 20.2142 20.2118C20.7907 19.6353 21.1146 18.8534 21.1146 18.0381C21.1146 17.2228 20.7907 16.4409 20.2142 15.8644C19.6377 15.2879 18.8558 14.964 18.0405 14.964C17.2252 14.964 16.4433 15.2879 15.8668 15.8644C15.2903 16.4409 14.9664 17.2228 14.9664 18.0381C14.9664 18.8534 15.2903 19.6353 15.8668 20.2118Z" fill="#949494"/>
<path fill-rule="evenodd" clip-rule="evenodd" d="M25.2087 23.4936C25.4127 22.9402 25.5203 22.356 25.5269 21.7662V21.7672H25.5382C25.5822 20.7889 25.5822 20.5208 25.5822 18.028C25.5822 15.5341 25.5709 15.2609 25.5269 14.2877C25.5174 13.7046 25.4098 13.1272 25.2087 12.5798C25.0549 12.1817 24.8196 11.8203 24.5179 11.5186C24.2162 11.2169 23.8547 10.9816 23.4567 10.8278C22.9096 10.6242 22.3315 10.5166 21.7478 10.5096C20.7582 10.4533 20.5024 10.4533 18.0085 10.4533C15.5147 10.4533 15.2414 10.4655 14.2682 10.5096C13.685 10.5177 13.1074 10.6253 12.5603 10.8278C11.7529 11.1369 11.1133 11.7723 10.8012 12.5798C10.5972 13.1328 10.4896 13.7167 10.4829 14.3061C10.4287 15.2977 10.4287 15.5525 10.4287 18.0464C10.4287 20.5392 10.4389 20.8135 10.4829 21.7857C10.4925 22.3688 10.6001 22.9462 10.8012 23.4936C10.9556 23.8923 11.1919 24.2542 11.4949 24.5558C11.7979 24.8574 12.1609 25.092 12.5603 25.2445C13.1071 25.448 13.6849 25.5556 14.2682 25.5628C15.2588 25.6191 15.5136 25.6191 18.0085 25.6191C20.5014 25.6191 20.7756 25.6078 21.7478 25.5628C22.3314 25.5552 22.9095 25.4476 23.4567 25.2445C23.8548 25.0911 24.2163 24.856 24.518 24.5545C24.8197 24.2529 25.055 23.8915 25.2087 23.4936ZM14.6946 14.6932C15.582 13.8058 16.7855 13.3072 18.0405 13.3072C19.2955 13.3072 20.4991 13.8058 21.3865 14.6932C22.2739 15.5806 22.7724 16.7841 22.7724 18.0391C22.7724 19.2941 22.2739 20.4977 21.3865 21.3851C20.4991 22.2725 19.2955 22.771 18.0405 22.771C16.7855 22.771 15.582 22.2725 14.6946 21.3851C13.8072 20.4977 13.3086 19.2941 13.3086 18.0391C13.3086 16.7841 13.8072 15.5806 14.6946 14.6932ZM22.9595 14.2374C23.5687 14.2374 24.0626 13.7435 24.0626 13.1343C24.0626 12.525 23.5687 12.0311 22.9595 12.0311C22.3502 12.0311 21.8563 12.525 21.8563 13.1343C21.8563 13.7435 22.3502 14.2374 22.9595 14.2374Z" fill="#949494"/>
<path fill-rule="evenodd" clip-rule="evenodd" d="M18 33C26.2843 33 33 26.2843 33 18C33 9.71573 26.2843 3 18 3C9.71573 3 3 9.71573 3 18C3 26.2843 9.71573 33 18 33ZM25.7105 10.3807C26.1744 10.8445 26.5365 11.4 26.7734 12.0118C27.0465 12.7376 27.1923 13.5051 27.2042 14.2805C27.2615 15.2599 27.2615 15.5771 27.2615 18.0771C27.2615 20.5771 27.2482 20.8892 27.2042 21.8737C27.1888 22.6391 27.0445 23.3943 26.7754 24.1107C26.5382 24.7224 26.1761 25.2779 25.7121 25.7418C25.2482 26.2057 24.6927 26.5679 24.081 26.8051C23.3649 27.0733 22.6085 27.2183 21.844 27.2339C20.8667 27.2902 20.5464 27.2902 18.0474 27.2902C15.5484 27.2902 15.2363 27.2768 14.2509 27.2339C13.4848 27.2087 12.7286 27.0529 12.0149 26.7734C11.403 26.5365 10.8472 26.1747 10.3831 25.7109C9.91898 25.2472 9.5567 24.6917 9.31942 24.08C9.05028 23.3626 8.90599 22.6074 8.89064 21.8419C8.83333 20.8626 8.83333 20.5443 8.83333 18.0454C8.83333 15.5454 8.84664 15.2333 8.89064 14.2488C8.9056 13.4842 9.05059 12.7277 9.31942 12.0118C9.55604 11.3999 9.91797 10.8442 10.382 10.3803C10.846 9.9165 11.4018 9.55478 12.0138 9.31839C12.7289 9.04885 13.4848 8.90349 14.2488 8.88859C15.2261 8.83333 15.5464 8.83333 18.0454 8.83333C20.5443 8.83333 20.8565 8.84561 21.8419 8.88859C22.6065 8.90429 23.3629 9.04962 24.0789 9.31839C24.6908 9.55506 25.2465 9.91687 25.7105 10.3807Z" fill="#949494"/>
</svg>
