<svg width="70" height="80" viewBox="0 0 70 80" fill="none" xmlns="http://www.w3.org/2000/svg">
<path fill-rule="evenodd" clip-rule="evenodd" d="M34.951 5.90906L6.28906 23.1447V56.9238L34.9636 74.0948L63.7112 57.0543V23.3114L34.951 5.90906ZM65.7466 21.0365C66.3454 21.3988 66.7112 22.0478 66.7112 22.7476V57.624C66.7112 58.3303 66.3386 58.9843 65.731 59.3444L35.9808 76.9793C35.3492 77.3537 34.5633 77.3519 33.9335 76.9747L4.26155 59.2064C3.6583 58.8452 3.28906 58.1937 3.28906 57.4905V22.5791C3.28906 21.8773 3.65693 21.2268 4.25838 20.8652L33.9219 3.02724C34.5578 2.64485 35.3531 2.64594 35.9879 3.03007L65.7466 21.0365Z" fill="#7B7269"/>
<path fill-rule="evenodd" clip-rule="evenodd" d="M36.9858 12.9624C36.9858 12.9502 36.9726 12.9426 36.962 12.9487L21.5732 21.8911H21.4912V21.9388L21.4819 21.9441V25.9117L21.4912 25.9063V31.5227L15.2773 27.868V31.9285L21.4912 35.5833V36.8094L18.0283 34.7725V38.833L21.4912 40.8699V56.8587L24.9912 59.3994V48.2127L34.1094 53.5757L34.1689 65.2908L34.2407 65.2906V65.4168H37.0039V53.6678L46.1733 48.1577V59.9344L49.5649 58.0433V37.0264V33.1028L37.0039 25.7976V12.9495L36.9858 12.9624ZM46.1733 44.0745V35.0537L34.124 28.2552L34.1245 18.4263L24.9912 23.834V33.5813L37.0039 40.3443V45.9334V49.7716L46.1733 44.0745ZM34.062 44.2005L34.0552 42.8223L24.9912 37.6419V38.868L34.062 44.2005ZM34.0889 49.5032L34.0825 48.2757L24.9912 42.9285V44.1521L34.0889 49.5032Z" fill="#7B7269"/>
</svg>
