<svg width="94" height="91" viewBox="0 0 94 91" fill="none" xmlns="http://www.w3.org/2000/svg">
<path d="M78.7112 28.2476C78.7112 27.5478 78.3454 26.8988 77.7466 26.5365L47.9879 8.53007C47.3531 8.14594 46.5578 8.14485 45.9219 8.52724L16.2584 26.3652C15.6569 26.7268 15.2891 27.3773 15.2891 28.0791V62.9905C15.2891 63.6937 15.6583 64.3452 16.2616 64.7064L45.9335 82.4747C46.5633 82.8519 47.3492 82.8537 47.9808 82.4793L77.731 64.8444C78.3386 64.4843 78.7112 63.8303 78.7112 63.124V28.2476Z" fill="#928F8E"/>
<path fill-rule="evenodd" clip-rule="evenodd" d="M48.2468 8.10229L78.0054 26.1087C78.7539 26.5616 79.2112 27.3728 79.2112 28.2476V63.124C79.2112 64.0069 78.7455 64.8244 77.986 65.2746L48.2357 82.9094C47.4463 83.3774 46.4639 83.3752 45.6766 82.9037L16.0047 65.1354C15.2506 64.6838 14.7891 63.8695 14.7891 62.9905V28.0791C14.7891 27.2019 15.2489 26.3888 16.0007 25.9367L45.6642 8.09875C46.4591 7.62076 47.4532 7.62213 48.2468 8.10229ZM77.7466 26.5365C78.3454 26.8988 78.7112 27.5478 78.7112 28.2476V63.124C78.7112 63.8303 78.3386 64.4843 77.731 64.8444L47.9808 82.4793C47.3492 82.8537 46.5633 82.8519 45.9335 82.4747L16.2616 64.7064C15.6583 64.3452 15.2891 63.6937 15.2891 62.9905V28.0791C15.2891 27.3773 15.6569 26.7268 16.2584 26.3652L45.9219 8.52724C46.5578 8.14485 47.3531 8.14594 47.9879 8.53007L77.7466 26.5365Z" fill="#928F8E"/>
<path fill-rule="evenodd" clip-rule="evenodd" d="M46.951 11.4091L18.2891 28.6447V62.4238L46.9636 79.5948L75.7112 62.5543V28.8114L46.951 11.4091ZM77.7466 26.5365C78.3454 26.8988 78.7112 27.5478 78.7112 28.2476V63.124C78.7112 63.8303 78.3386 64.4843 77.731 64.8444L47.9808 82.4793C47.3492 82.8537 46.5633 82.8519 45.9335 82.4747L16.2616 64.7064C15.6583 64.3452 15.2891 63.6937 15.2891 62.9905V28.0791C15.2891 27.3773 15.6569 26.7268 16.2584 26.3652L45.9219 8.52724C46.5578 8.14485 47.3531 8.14594 47.9879 8.53007L77.7466 26.5365Z" fill="white"/>
<path fill-rule="evenodd" clip-rule="evenodd" d="M46.8704 12.0228L18.6328 28.9723V62.0822L46.8725 78.962L75.1901 62.207V29.1273L46.8704 12.0228ZM75.6901 28.8452L46.8712 11.4392L18.1328 28.6893V62.3659L46.8712 79.5437L75.6901 62.4921V28.8452Z" fill="#767372"/>
<path fill-rule="evenodd" clip-rule="evenodd" d="M47.9858 18.4622C47.9858 18.4499 47.9726 18.4423 47.962 18.4485L32.5732 27.3909H32.4912V27.4385L32.4819 27.4439V31.4114L32.4912 31.406V37.0225L26.2773 33.3677V37.4283L32.4912 41.083V42.3091L29.0283 40.2722V44.3328L32.4912 46.3697V62.3584L35.9912 64.8991V53.7124L45.1094 59.0755L45.1689 70.7906L45.2407 70.7903V70.9165H48.0039V59.1675L57.1733 53.6575V65.4341L60.5649 63.5431V42.5262V38.6026L48.0039 31.2974V18.4492L47.9858 18.4622ZM57.1733 49.5742V40.5535L45.124 33.7549L45.1245 23.9261L35.9912 29.3338V39.0811L48.0039 45.844V51.4331V55.2713L57.1733 49.5742ZM45.062 49.7002L45.0552 48.3221L35.9912 43.1416V44.3677L45.062 49.7002ZM45.0889 55.003L45.0825 53.7754L35.9912 48.4283V49.6519L45.0889 55.003Z" fill="white"/>
<path fill-rule="evenodd" clip-rule="evenodd" d="M32.4819 27.4438L32.4912 27.4385V27.3908H32.5732L47.962 18.4484C47.9663 18.4459 47.971 18.4457 47.9751 18.4471C47.9765 18.4476 47.9779 18.4483 47.9792 18.4492C47.9831 18.452 47.9858 18.4566 47.9858 18.4621L48.0039 18.4492V31.2973L60.5649 38.6025V63.543L57.1733 65.4341V53.6574L48.0039 59.1675V70.9165H45.2412L45.2407 70.7903L45.1689 70.7905L45.1094 59.0754L35.9912 53.7124V64.8991L32.4912 62.3584V46.3696L29.0283 44.3327V40.2722L32.4912 42.3091V41.083L26.2773 37.4282V33.3677L32.4912 37.0224V31.406L32.4819 31.4114V27.4438ZM31.9912 32.2732L31.9819 32.2786V27.1555L31.9912 27.1502V26.8908H32.4385L47.7108 18.0161C47.7447 17.9964 47.7795 17.981 47.8146 17.9697L48.5039 17.4761V31.0097L61.0649 38.3149V63.8367L56.6733 66.2853V54.5412L48.5039 59.4503V71.4165H44.7407V71.292L44.6715 71.2922L44.6108 59.3623L36.4912 54.5865V65.8799L31.9912 62.6133V46.6556L28.5283 44.6187V39.398L31.9912 41.4349V41.369L25.7773 37.7142V32.4935L31.9912 36.1483V32.2732ZM47.5039 18.4621H47.4858C47.4858 18.5089 47.4922 18.5534 47.5039 18.5952V18.4621ZM44.624 34.0468L44.6245 24.8031L36.4912 29.6187V38.7887L48.5039 45.5517V54.372L56.6733 49.2962V40.8454L44.624 34.0468ZM57.1733 40.5534V49.5742L48.0039 55.2713V45.844L35.9912 39.081V29.3337L45.1245 23.926L45.124 33.7549L57.1733 40.5534ZM44.5566 48.613L36.4912 44.0033V44.0816L44.5577 48.8237L44.5566 48.613ZM45.0552 48.322L35.9912 43.1416V44.3677L45.062 49.7002L45.0552 48.322ZM44.584 54.0622L36.4912 49.3024V49.3658L44.5843 54.1261L44.584 54.0622ZM45.0825 53.7754L35.9912 48.4282V49.6518L45.0889 55.0029L45.0825 53.7754Z" fill="#787474"/>
</svg>
