<svg width="29" height="29" viewBox="0 0 29 29" fill="none" xmlns="http://www.w3.org/2000/svg">
<path d="M6.13484 11.4272C6.13484 10.4872 6.29918 9.59903 6.62301 8.77011C6.93241 7.965 7.39209 7.22607 7.97755 6.5927C8.56182 5.96764 9.23043 5.42714 9.96405 4.98682C10.7167 4.53146 11.5316 4.18793 12.3831 3.96699C13.2449 3.74069 14.1323 3.62657 15.0233 3.62745C16.3996 3.62745 17.6805 3.91865 18.8683 4.49865C20.0405 5.06808 21.0384 5.94194 21.7574 7.0289C22.4993 8.13453 22.8678 9.38515 22.8678 10.7796C22.8678 11.6157 22.7857 12.4338 22.6177 13.2337C22.4528 14.0332 22.1907 14.8095 21.8371 15.5452C21.5002 16.2575 21.0596 16.9159 20.5297 17.4991C19.9972 18.073 19.3523 18.5312 18.6351 18.8452C17.8564 19.1864 17.0141 19.3582 16.164 19.3491C15.5731 19.3491 14.9835 19.2101 14.4011 18.931C13.8186 18.6531 13.4006 18.2712 13.1492 17.7819C13.061 18.1214 12.9402 18.612 12.7795 19.2536C12.6248 19.894 12.5209 20.3073 12.475 20.4946C12.4266 20.6807 12.3372 20.9912 12.2067 21.4214C12.1182 21.7396 12.0047 22.0503 11.8672 22.3506L11.4515 23.165C11.2717 23.5145 11.0708 23.8526 10.8498 24.1776C10.6311 24.4942 10.3604 24.8724 10.0378 25.3074L9.85772 25.3714L9.73809 25.2409C9.6088 23.8719 9.54234 23.0526 9.54234 22.7819C9.54234 21.9808 9.6378 21.0818 9.8263 20.0837C10.0112 19.0869 10.3036 17.8338 10.6963 16.327C11.089 14.8214 11.3138 13.9357 11.3742 13.6735C11.0975 13.1092 10.9573 12.3722 10.9573 11.4659C10.9573 10.7421 11.1833 10.0642 11.6364 9.42624C12.0907 8.79065 12.6647 8.47286 13.3607 8.47286C13.8936 8.47286 14.3068 8.64928 14.6028 9.00332C14.9001 9.35615 15.0451 9.80082 15.0451 10.3434C15.0451 10.9185 14.8542 11.7511 14.4699 12.8398C14.0857 13.9297 13.8948 14.7429 13.8948 15.283C13.8948 15.8304 14.0905 16.2884 14.482 16.6472C14.8684 17.0063 15.3793 17.2009 15.9066 17.1898C16.3851 17.1898 16.8286 17.081 17.2406 16.8623C17.6462 16.65 17.9973 16.3469 18.2665 15.9766C18.8528 15.1722 19.2708 14.2578 19.4954 13.2881C19.6114 12.7782 19.7008 12.2936 19.7564 11.8381C19.8156 11.3801 19.841 10.9475 19.841 10.5367C19.841 9.0299 19.3625 7.8554 18.4115 7.0144C17.4557 6.1734 16.2111 5.75532 14.6802 5.75532C12.939 5.75532 11.4829 6.3184 10.3169 7.4482C9.14963 8.57436 8.56238 10.0062 8.56238 11.7426C8.56238 12.1257 8.62038 12.4954 8.73034 12.8531C8.83788 13.2095 8.95509 13.4935 9.08197 13.7037C9.20763 13.9104 9.32605 14.1122 9.43359 14.2982C9.54234 14.4843 9.59913 14.6172 9.59913 14.697C9.59913 14.9411 9.53509 15.2589 9.4058 15.6516C9.27168 16.0443 9.11338 16.24 8.92247 16.24C8.90434 16.24 8.82943 16.2267 8.69893 16.1989C8.24696 16.064 7.83881 15.8118 7.51597 15.4679C7.17333 15.1115 6.90292 14.6922 6.71968 14.233C6.53695 13.7755 6.39463 13.3028 6.29434 12.8204C6.18599 12.364 6.13245 11.8963 6.13484 11.4272Z" fill="#666666"/>
</svg>
