<svg width="36" height="36" viewBox="0 0 36 36" fill="none" xmlns="http://www.w3.org/2000/svg">
<path d="M17.9488 3C14.4593 3.02368 11.0865 4.25493 8.40737 6.48312C5.72823 8.71131 3.90924 11.798 3.26155 15.2151C2.61387 18.6322 3.17775 22.1674 4.85672 25.216C6.5357 28.2645 9.22544 30.637 12.4658 31.9275C12.248 30.5072 12.248 29.0622 12.4658 27.6419L14.2397 20.1422C13.959 19.463 13.82 18.7339 13.8312 17.9994C13.8312 15.9209 15.046 14.3567 16.5511 14.3567C16.8238 14.3526 17.0941 14.4073 17.3436 14.517C17.5931 14.6268 17.8158 14.789 17.9966 14.9925C18.1773 15.196 18.3117 15.436 18.3907 15.6961C18.4697 15.9562 18.4913 16.2303 18.4541 16.4995C18.4541 17.7852 17.637 19.7136 17.207 21.4922C17.1144 21.8238 17.1034 22.1728 17.1749 22.5097C17.2463 22.8465 17.3982 23.1612 17.6176 23.4271C17.837 23.693 18.1174 23.9023 18.4352 24.0374C18.753 24.1724 19.0987 24.2291 19.4431 24.2028C22.1094 24.2028 24.1735 21.385 24.1735 17.3352C24.2003 16.5122 24.0547 15.6927 23.746 14.929C23.4372 14.1653 22.9722 13.474 22.3804 12.8994C21.7886 12.3248 21.0832 11.8794 20.309 11.5917C19.5349 11.304 18.7091 11.1802 17.8843 11.2283C17.0037 11.1906 16.1245 11.3313 15.3001 11.642C14.4757 11.9528 13.7231 12.427 13.0879 13.0359C12.4527 13.6449 11.9481 14.376 11.6046 15.185C11.2611 15.9939 11.086 16.8639 11.0897 17.7423C11.0777 18.966 11.454 20.1621 12.1648 21.16C12.2165 21.2173 12.2533 21.2863 12.272 21.361C12.2908 21.4357 12.2909 21.5138 12.2723 21.5886C12.154 22.06 11.896 23.0885 11.853 23.2921C11.81 23.4956 11.6272 23.6242 11.3477 23.4956C9.46632 22.6171 8.29447 19.8851 8.29447 17.678C8.29447 12.9532 11.7455 8.60336 18.239 8.60336C23.4532 8.60336 27.517 12.3104 27.517 17.2709C27.517 22.435 24.2918 26.592 19.7012 26.592C19.0282 26.6153 18.36 26.4707 17.7573 26.1713C17.1546 25.872 16.6366 25.4273 16.2501 24.8777L15.3148 28.4455C14.8664 29.832 14.2375 31.1539 13.4441 32.3775C14.906 32.808 16.4245 33.0175 17.9488 32.9989C21.9406 32.9989 25.7689 31.4186 28.5916 28.6056C31.4142 25.7927 33 21.9775 33 17.9994C33 14.0213 31.4142 10.2062 28.5916 7.39323C25.7689 4.58029 21.9406 3 17.9488 3Z" fill="#949494"/>
</svg>
