<?xml version="1.0" encoding="UTF-8" standalone="no"?>
<!-- Created with Inkscape (http://www.inkscape.org/) -->

<svg
   xmlns:dc="http://purl.org/dc/elements/1.1/"
   xmlns:cc="http://creativecommons.org/ns#"
   xmlns:rdf="http://www.w3.org/1999/02/22-rdf-syntax-ns#"
   xmlns:svg="http://www.w3.org/2000/svg"
   xmlns="http://www.w3.org/2000/svg"
   xmlns:sodipodi="http://sodipodi.sourceforge.net/DTD/sodipodi-0.dtd"
   xmlns:inkscape="http://www.inkscape.org/namespaces/inkscape"
   width="210mm"
   height="297mm"
   viewBox="0 0 744.09448819 1052.3622047"
   id="svg2"
   version="1.1"
   inkscape:version="0.91 r13725"
   sodipodi:docname="buy.svg">
  <defs
     id="defs4" />
  <sodipodi:namedview
     id="base"
     pagecolor="#ffffff"
     bordercolor="#666666"
     borderopacity="1.0"
     inkscape:pageopacity="0.0"
     inkscape:pageshadow="2"
     inkscape:zoom="0.2799099"
     inkscape:cx="-96.428571"
     inkscape:cy="67.837688"
     inkscape:document-units="px"
     inkscape:current-layer="layer1"
     showgrid="false"
     inkscape:window-width="1168"
     inkscape:window-height="902"
     inkscape:window-x="880"
     inkscape:window-y="245"
     inkscape:window-maximized="0" />
  <metadata
     id="metadata7">
    <rdf:RDF>
      <cc:Work
         rdf:about="">
        <dc:format>image/svg+xml</dc:format>
        <dc:type
           rdf:resource="http://purl.org/dc/dcmitype/StillImage" />
        <dc:title></dc:title>
      </cc:Work>
    </rdf:RDF>
  </metadata>
  <g
     inkscape:label="Layer 1"
     inkscape:groupmode="layer"
     id="layer1">
    <g
       id="g4509"
       transform="matrix(1.0574492,0,0,1.0574492,86.967528,235.46799)"
       style="fill:#54b3b7;fill-opacity:1">
      <g
         id="g4469"
         style="fill:#54b3b7;fill-opacity:1">
        <path
           id="path4471"
           d="m 309.43,219.944 c -19,-10.5 -39.2,-18.5 -59.2,-26.8 -11.6,-4.8 -22.7,-10.4 -32.5,-18.2 -19.3,-15.4 -15.6,-40.4 7,-50.3 6.4,-2.8 13.1,-3.7 19.9,-4.1 26.2,-1.4 51.1,3.4 74.8,14.8 11.8,5.7 15.7,3.9 19.7,-8.4 4.2,-13 7.7,-26.2 11.6,-39.3 2.6,-8.8 -0.6,-14.6 -8.9,-18.3 -15.2,-6.7 -30.8,-11.5 -47.2,-14.1 -21.4,-3.3 -21.4,-3.4 -21.5,-24.9 -0.1,-30.3 -0.1,-30.3 -30.5,-30.3 -4.4,0 -8.8,-0.1 -13.2,0 -14.2,0.4 -16.6,2.9 -17,17.2 -0.2,6.4 0,12.8 -0.1,19.3 -0.1,19 -0.2,18.7 -18.4,25.3 -44,16 -71.2,46 -74.1,94 -2.6,42.5 19.6,71.2 54.5,92.1 21.5,12.9 45.3,20.5 68.1,30.6 8.9,3.9 17.4,8.4 24.8,14.6 21.9,18.1 17.9,48.2 -8.1,59.6 -13.9,6.1 -28.6,7.6 -43.7,5.7 -23.3,-2.9 -45.6,-9 -66.6,-19.9 -12.3,-6.4 -15.9,-4.7 -20.1,8.6 -3.6,11.5 -6.8,23.1 -10,34.7 -4.3,15.6 -2.7,19.3 12.2,26.6 19,9.2 39.3,13.9 60,17.2 16.2,2.6 16.7,3.3 16.9,20.1 0.1,7.6 0.1,15.3 0.2,22.9 0.1,9.6 4.7,15.2 14.6,15.4 11.2,0.2 22.5,0.2 33.7,-0.1 9.2,-0.2 13.9,-5.2 13.9,-14.5 0,-10.4 0.5,-20.9 0.1,-31.3 -0.5,-10.6 4.1,-16 14.3,-18.8 23.5,-6.4 43.5,-19 58.9,-37.8 42.8,-52 26.5,-128.1 -34.1,-161.6 z"
           inkscape:connector-curvature="0"
           style="fill:#54b3b7;fill-opacity:1" />
      </g>
      <g
         id="g4473"
         style="fill:#54b3b7;fill-opacity:1" />
      <g
         id="g4475"
         style="fill:#54b3b7;fill-opacity:1" />
      <g
         id="g4477"
         style="fill:#54b3b7;fill-opacity:1" />
      <g
         id="g4479"
         style="fill:#54b3b7;fill-opacity:1" />
      <g
         id="g4481"
         style="fill:#54b3b7;fill-opacity:1" />
      <g
         id="g4483"
         style="fill:#54b3b7;fill-opacity:1" />
      <g
         id="g4485"
         style="fill:#54b3b7;fill-opacity:1" />
      <g
         id="g4487"
         style="fill:#54b3b7;fill-opacity:1" />
      <g
         id="g4489"
         style="fill:#54b3b7;fill-opacity:1" />
      <g
         id="g4491"
         style="fill:#54b3b7;fill-opacity:1" />
      <g
         id="g4493"
         style="fill:#54b3b7;fill-opacity:1" />
      <g
         id="g4495"
         style="fill:#54b3b7;fill-opacity:1" />
      <g
         id="g4497"
         style="fill:#54b3b7;fill-opacity:1" />
      <g
         id="g4499"
         style="fill:#54b3b7;fill-opacity:1" />
      <g
         id="g4501"
         style="fill:#54b3b7;fill-opacity:1" />
    </g>
  </g>
</svg>
