<?xml version="1.0" encoding="utf-8"?>
<!-- Generator: Adobe Illustrator 18.1.0, SVG Export Plug-In . SVG Version: 6.00 Build 0)  -->
<svg version="1.0" id="Layer_1" xmlns="http://www.w3.org/2000/svg" xmlns:xlink="http://www.w3.org/1999/xlink" x="0px" y="0px"
	 viewBox="0 0 150 150" enable-background="new 0 0 150 150" xml:space="preserve">
<g>
	<g>
		<path fill-rule="evenodd" clip-rule="evenodd" fill="#D3E17A" d="M64.9,51.2c3.3,5.5-6.2,8.9-7.3,2.7c-2.3,0.6-4,1.8-5.5,3.3
			c4.8-7.5,14-11,24.8-10.8c16.7,0.4,32.4,12.1,33.8,28.6C112,89,104.1,98,96,104.1c0.1,0.4-1,0.6-0.2,0.8
			c10.6-6.8,20.8-22.8,14-39.4c-5.1-12.4-17.8-20-32.1-22.6c11.6-0.8,20.4,3.9,27.1,9.8c6.3,5.6,12.2,14,12,25.8
			c-0.2,14.3-9.7,25-19.3,31.1c-0.4,0.3-4.1,2.8-1.2,1.3c10.6-5.7,22.3-18.3,21.5-35.6c-0.5-10.8-6.2-18.7-12.5-24.6
			c-6.5-6.1-15.4-10.4-26.1-11C64.3,38.8,50.4,44.2,44.6,54c-3.8,2-7.5,4.2-8.8,8.8c8.7-3.5,19.8-1,25.3,4.8c7.8,8.1,9,23.6,2,34.1
			c18.8,0.5,37-9.1,35.1-27.8c-0.8-8.3-6.9-13-12-17.5C101.8,58.6,108.9,82,97,94.1c3-2.8,6.4-8.7,7-14.8
			C105.9,59.4,85.6,46.7,64.9,51.2z"/>
		<path fill-rule="evenodd" clip-rule="evenodd" fill="#D3E17A" d="M33.6,73c14.1-8.1,31,2.3,25.8,20.8c9.4-15.3-7.2-34.5-25.1-25.8
			L33.6,73z"/>
	</g>
	<path fill="#0776A8" d="M41.3,17.3C59,6.8,81.7,5.1,100.7,13.1c10.9,7.5,19.2,18.6,23.8,30.9c3,8.5,4.9,17.6,3.8,26.5
		c-0.9-12.8-6.9-25.2-16.2-34c-7.9-7.6-18.3-12.7-29.2-14.2C68.3,20.2,53,24.6,41.7,33.8C27,45.7,19.4,65.7,22.9,84.2
		c2.3,13.3,10,25.6,20.9,33.6c10.6,7.9,24.2,11.5,37.3,10c12.2-1.3,23.9-7.1,32.5-15.9c7.5-7.6,11.9-17.6,15.3-27.5
		c4-13.4,3.6-28.1-1.4-41.2c-3.4-9.4-9.4-17.7-16.4-24.8c4.5,2.4,7.7,6.5,10.8,10.5c9.3,12.5,14.1,28.2,13.1,43.8
		c-0.9,17-8.8,33.3-21.2,45c12.1-9.6,20.5-23.6,23.2-38.8c2.6-13.4,0.3-27.4-5.2-39.7c7.3,11,10.8,24.4,10.4,37.5
		c-0.2,16.7-7.2,33.1-18.9,45c-8.9,9.1-20.4,15.7-32.8,18.5c-12.9,3-26.8,2.1-39.2-2.7c-5.3-2.3-10-5.9-14.3-9.7
		c-7.7-7-14-15.9-17.5-25.8c2,9.1,7.3,17.1,13.1,24.3C23.8,119.5,17.2,110,13,99.7C9,89.8,7.6,79,8.6,68.4
		c1.4-14.7,7.9-28.8,18.1-39.5C31,24.4,35.9,20.5,41.3,17.3z"/>
</g>
</svg>
