<?xml version="1.0" encoding="utf-8"?>
<!-- Generator: Adobe Illustrator 19.0.0, SVG Export Plug-In . SVG Version: 6.00 Build 0)  -->
<svg version="1.1" id="Layer_1" xmlns="http://www.w3.org/2000/svg" xmlns:xlink="http://www.w3.org/1999/xlink" x="0px" y="0px"
	 viewBox="0 0 800 800" style="enable-background:new 0 0 800 800;" xml:space="preserve">
<style type="text/css">
	.st0{fill:#137EC2;}
	.st1{fill:#147EC2;}
	.st2{fill:#157EC2;}
	.st3{fill:#2280C3;}
</style>
<g id="XMLID_263_">
	<g id="XMLID_8178_">
		<path id="XMLID_10164_" class="st0" d="M558.7,37.5c18,0.4,35.9,2,53.8,4.3c22.8,3,45.3,7.3,67.3,13.9c1.7,0.5,3.4,1.1,5.1,1.6
			c0.9,0.3,1.2,0.6,1.1,1.7c-1.7,11.8-3.4,23.6-5.1,35.4c-1.8,12.5-3.6,25.1-5.4,37.6c-0.6,4.4-1.3,8.7-1.9,13.2
			c-0.3,0-0.5,0-0.7-0.1c-11.2-9.4-24.3-15.4-37.9-20.4c-17.9-6.5-36.4-11.2-55.3-14.1c-13.4-2.1-27-3.3-40.5-4.2
			c-13.9-0.9-27.8-1.3-41.7-1.1c-32.6,0.6-64.8,4.8-96.5,12.4c-38.7,9.2-75.9,22.9-112.3,38.8c-25.8,11.3-51.4,23.4-76.2,36.7
			c-27.6,14.8-52.5,33.5-75.1,55.1c-27.2,25.9-50.1,55.1-68.8,87.7c-12.7,22.2-22.4,45.8-29.6,70.4c-2.1,7.3-2.9,15-3.8,22.6
			c-1.3,10.7-1.7,21.4-1.2,32.2c0.7,18.3,4,36.1,9.6,53.5c9.2,28.8,24,54.6,41.9,78.7c28.9,39,66.1,67.4,110,87.5
			c30.1,13.8,61.7,23,94.3,28.8c15.7,2.8,31.4,4.7,47.3,6c15.8,1.2,31.6,1.8,47.5,1.4c12.6-0.4,25.1-1.5,37.7-2.9
			c16.4-1.8,32.7-4.3,48.8-7.6c57.6-11.9,111.2-33.3,159.4-67.6c43.6-31,79.1-69.6,104.9-116.6c10.7-19.5,18.1-40.4,22.8-62.2
			c3.3-15.3,4.9-30.7,4.3-46.4c-0.8-23.3-6.1-45.5-15.6-66.8c-11.9-26.6-27.6-50.6-48-71.4c-18.4-18.7-40.3-32.5-64.3-42.8
			c-23.2-10-47.4-16.5-72.4-19.9c-6-0.8-12.1-1.4-18.1-1.8c-1.7-0.1-1.9-0.7-1.9-2.1c0-13.4,0-26.8,0-40.2c0-9,0-18,0-26.9
			c0-1.9,0.2-2.5,2.4-2.3c30.6,3.6,60.2,11,88.6,23.3c33.9,14.7,63.7,35.4,89,62.3c22.7,24.1,40.8,51.2,53.2,82
			c8.5,21,13.6,42.8,16.4,65.2c2.5,19.6,3.1,39.2,1.6,58.9c-5,64.3-27.7,121.7-67.1,172.6c-22.8,29.5-50.3,54-81.2,74.8
			c-33.2,22.4-69,39.6-106.6,53.1c-22,7.9-44.1,15.2-67,20.1c-15.5,3.3-31.2,5.9-47,7.8c-22.8,2.7-45.6,3.6-68.6,3.1
			c-18.4-0.4-36.7-1.8-55-4.3c-26.8-3.6-53.2-9.3-79-17.5c-34.4-10.9-66.3-26.9-95.1-48.8c-40.3-30.7-71.7-68.7-93-114.8
			c-10.9-23.5-18.4-48.1-22.7-73.6c-2.4-14.4-3.8-28.9-4.4-43.5c0-0.6,0.1-1.2-0.3-1.7c0-7.8,0-15.6,0-23.4c0.4-0.5,0.3-1.1,0.3-1.7
			c0.5-14.7,2.2-29.3,4.8-43.8c5.4-30.2,15-59.1,28.8-86.5c19.2-38.5,45-72,77.2-100.7c36.6-32.7,76.2-61.2,118.8-85.4
			c45.7-26,93.8-46.2,144.7-59.6c29.5-7.7,59.5-12.9,89.8-16.4c16-1.8,32-3,48.1-3.5C522.2,37.4,541.4,37,558.7,37.5z M552.1,182.1
			c0.4,14.2,11.4,25.2,24.9,24.9c13.4-0.4,24.3-12.1,24-25.7c-0.3-12.9-12.3-23.5-26-23.1C562.8,158.6,551.8,170.1,552.1,182.1z"/>
		<path id="XMLID_10158_" class="st1" d="M583.5,543.8c0-4.6,0-9.2,0-13.9c0-1.9-0.9-2.5-2.7-2c-1.8,0.5-2.8,1.9-3.7,3.3
			c-4.1,6.5-8.3,12.8-12.3,19.4c-3.5,5.7-8.3,9.4-15,10.5c-2.3,0.4-9.6,0.4-13.3-3.7c-8.5-9.3-12.5-20.6-13.5-33.1
			c-0.6-7.6-2.5-44.2,7.6-72.1c2.2-6,5.1-11.7,9.6-16.2c15.4-15.3,29-20.2,36.6-21.9c1.2-0.3,1.8-0.6,1.8-2
			c-0.5-11.2-1-22.4-1.5-33.6c-0.4-9.7-0.8-19.4-1.2-29.1c-0.1-1.3,0.4-2.2,1.4-3.1c2.6-2.2,5.6-3.5,9-4.1
			c17.5-1.1,26.1,4.9,26.9,5.4c2.1,1.4,3,4,2.5,5.9c-0.8,4.4-0.8,8.3-1,12.4c-0.4,15.5-0.7,31-1,46.5c-0.5,22.3-1.1,44.6-1.6,66.9
			c-0.4,15.6-1.8,70.8-2.1,82.7c0,1.8-0.9,2.4-2.3,2.9c-5.3,2.1-10.6,1.1-16,0.1c-3-0.6-5.6-1.7-7.3-4.5c-0.6-1-0.9-1.8-0.9-2.9
			C583.6,553.1,583.5,548.4,583.5,543.8z M578.5,471.9C578.5,471.9,578.5,471.9,578.5,471.9c0-6.8,0-13.6,0-20.4c0-1.2,0-2.4,0-3.6
			c-0.1-1.4-1.1-2.2-2.2-2.8c-0.9-0.5-1.8,0-2.3,0.7c-1.7,2.3-4.2,4-5.8,6.4c-3.6,5.1-6.3,10.7-8.3,16.5c-6,17-6.8,34.7-6.2,52.5
			c0,0.7,0.2,1.3,0.3,2c0.1,1.2,0.8,1.5,1.9,1.3c2-0.3,3.7-1.2,5.5-2.2c4-2.3,6-6.6,9.8-9.1c0.2-0.1,0.3-0.4,0.4-0.7
			c1-1.8,2-3.6,3.1-5.3c2.7-4.2,4-8.9,4-13.9C578.5,486.3,578.5,479.1,578.5,471.9z"/>
		<path id="XMLID_9605_" class="st1" d="M275.2,403.5c-0.1,7,0,16.4-0.5,25.7c-0.2,4.6-1.6,8.8-4.5,12.5c-3.8,3.5-10.5,4.6-16.3,2.7
			c-7.7-2.5-10.5-10.6-10.9-14.3c-2-20.2-4.1-40.4-6.7-60.5c-0.9-7-1.7-14-3.3-20.9c-0.5-1.9-1-3.8-2.2-5.5
			c-2.2-3.3-4.2-3.4-6.4-0.1c-7.5,10.9-12.9,22.8-16.4,35.5c-1.5,5.3-1.6,10.8-1.3,16.3c0.5,7.8,0.7,15.6,1,23.3
			c0.2,4.3,0.2,8.6,0.3,12.9c0,1.3,0.2,2.6,0.1,4c-0.3,3.1-1.9,4.9-4.6,5.8c-7.1,2.2-24.7,0.8-26.3-2.2c-0.6-1.1-0.6-4.9-0.6-6
			c-0.4-15-0.8-30.1-1.2-45.1c-0.1-5.6-0.3-11.2-0.4-16.8c-0.5-18.5-0.9-37.1-1.4-55.6c-0.1-5.1-0.2-10.3-0.4-15.4
			c-0.1-1.6,0.5-2,2-2c9.4-0.3,18.7-0.6,28.1-0.9c2.4-0.1,4.9-0.1,7.3-0.3c1.2-0.1,1.6,0.3,1.6,1.5c0.2,10.6,0.5,21.1,0.8,31.7
			c0,0.7-0.7,2,0.9,2.1c1.5,0.1,2.9-1,3.3-2.1c1.1-3.3,4-11.7,5.5-14.5c2.9-5.5,7.4-9,13.3-11.2c10.7-4,19.5-0.2,23.9,4.5
			c5.6,6.6,8.6,14.3,10.2,22.8c2,10.6,3.2,21.2,4,32C274.9,375.6,275.2,388.3,275.2,403.5z"/>
		<path id="XMLID_9604_" class="st1" d="M329.9,219.6c0,3.6,0,7.3,0,10.9c0,2.3,1.2,3.1,3.3,2.3c6.5-2.3,13-4.6,19.5-7.1
			c1.9-0.7,3.9-1.1,5.9-1.9c2.5-1,5,0.4,6.8,2.6c2.8,3.5,3.3,11.1,0.9,14.8c-0.9,1.4-2,2.4-3.5,3c-10.4,4.1-20.8,8.3-31.3,12.2
			c-2.5,0.9-2.9,2.1-2.9,4.4c-0.2,18.5-0.5,36.9-0.8,55.4c-0.3,15.5-0.5,31-0.8,46.5c-0.3,19.2-0.7,36.6-1,55.8
			c0,1.3,0.2,3.1-1.7,4.6c-1.3,1-2.6,1.7-4.1,2.4c-6.2,3-14.2,3.7-19.9,0.1c-4.2-3.2-6.6-7-6.6-12.7c-0.1-21-0.7-42.1-1.1-63.1
			c-0.4-20.3-0.8-40.5-1.2-60.8c-0.1-4-0.2-7.9-0.3-11.9c-0.1-2.3-0.5-2.5-2.6-1.6c-9.8,4-19.6,8-29.4,12.1
			c-1.5,0.6-2.5,0.5-3.7-0.5c-4.5-3.4-9-6.6-13-10.7c-1.8-1.9-3.4-3.8-4.7-6.1c-1.4-2.4-1.8-4.9-1.7-7.6c0.1-1,0.5-1.4,1.5-1.7
			c8.3-2.3,16.6-4.4,24.7-7c8.6-2.7,17-5.9,25.5-8.9c3.3-1.2,3.4-1.1,3.2-4.7c-0.4-11.5-0.7-22.3-1.1-33.8c-0.1-3.6,0.6-4.7,4.9-4.7
			c0.9,0,18.2-0.6,26-0.9c6-0.2,9,2.2,9.2,7.9C329.9,212.6,329.8,216.1,329.9,219.6C329.8,219.6,329.9,219.6,329.9,219.6z"/>
		<path id="XMLID_9603_" class="st1" d="M294.8,549.1c-0.6-18.7-1.3-37.3-1.9-56c-0.1-4.1-0.3-8.2-0.5-12.3c-0.1-1,0.1-1.4,1.2-1.4
			c12.1,0,24.3,0,36.4,0c1.5,0,1.3,0.8,1.3,1.8c0,9.8,0,19.7,0,29.5c0,0.9,0,1.8,0.7,2.6c0.3,0.3,0.7,0.7,1.2,0.7
			c1.7,0.1,2.5-1.8,4.1-2c0.5-0.1,0.2-1.2,0.3-1.8c0.4-8.8,4.4-15.9,10.8-21.4c5.4-4.6,12.2-4.5,18.8-3.8
			c7.4,0.9,13.3,4.6,15.7,11.6c2.5,7.3,5.7,14.4,6.7,22.2c3.2,25.3,4.5,50.6,3.8,76c-0.2,7.3-0.2,14.6-1,21.9
			c-0.3,2.4-1.2,4.7-2.2,6.9c-1.9,4-8.2,6.5-12.1,4.9c-1.3-0.6-2.8-0.9-4-1.6c-1.9-1.2-4.1-1.6-6-3c-2.2-1.6-3.5-3.6-3.8-6.2
			c-1.4-11.2-2.6-22.4-3.9-33.6c-1.2-10.5-2.5-20.9-3.8-31.4c-1-7.8-2-15.7-2.9-23.5c-0.4-3.1-1.7-5.5-4.5-7.1
			c-1.5-0.9-2.8-0.8-4.2,0.1c-1.1,0.8-2,1.8-2.7,2.9c-7.7,12.1-13.4,25.1-16.1,39.3c-1,4.9-1.2,9.8-0.9,14.8
			c0.6,11.1,1.2,22.3,1.9,33.4c0.2,3.1,0.5,6.2-1.3,9c-0.4,0.6-0.7,1.3-1.4,1.6c-5.9,2.7-12,4.5-18.6,3.1c-1.4-0.3-3-0.4-3.9-2.2
			c-0.4-0.8-2-1.1-2.7-2.2c-1.1-1.4-1.7-2.9-1.8-4.7c-0.4-10.4-0.8-20.8-1.2-31.2C295.7,573.7,295.2,561.4,294.8,549.1
			C294.8,549.1,294.8,549.1,294.8,549.1z"/>
		<path id="XMLID_9598_" class="st1" d="M473,352.3c0,4,0,8.1-0.2,12.1c-0.3,7.6-4.2,12.9-11.7,14.2c-4.2,0.8-8.3,0.9-12.4-1
			c-3.5-1.6-5.5-4.3-5.8-8.1c-0.6-8.3-1-16.6-1.5-24.9c-0.9-13.6-1.8-27.1-2.7-40.7c-0.7-10.7-1.4-21.3-2.1-32
			c-0.9-13.1-1.8-26.2-2.7-39.3c-0.7-10.6-1.4-21.2-2.1-31.8c-0.9-12.8-1.8-25.7-2.6-38.5c-0.2-3-0.6-6-0.3-9.1
			c0.3-2.5,1.5-3.9,3.8-4.7c7.1-2.5,14.3-2.7,21.7-2.2c4.9,0.3,9.7,1,14.4,2.2c1.5,0.4,2.4,1.2,3.2,2.4c1.5,2.6,2,5.4,2,8.4
			c-0.1,24.4-0.3,48.7-0.4,73.1C473.7,242.5,473,322.4,473,352.3z"/>
		<path id="XMLID_9595_" class="st1" d="M656.1,469.2c0.2,4-0.4,8.9,1.1,13.7c1.3,4,5.5,6.2,9.6,5.5c9.6-1.7,16.7-13.5,18.9-17.8
			c2.6-5,6.5-7.4,12.1-6.9c4.9,0.5,9.1,2.8,12,6.8c2.4,3.4,2,7.4,1.3,11.3c-0.5,2.8-5.1,8.6-5.5,9.6c-7.5,16-19.9,25.2-37.9,25.2
			c-24.1-0.1-34.4-17.7-37.7-24.7c-3.8-8.1-5.8-16.6-6.3-25.4c-1.3-24.3,4.6-47,14.8-68.8c2.8-5.9,11-23.2,30.1-26.4
			c9.4-1.6,18.3,0.2,26.5,5c7.1,4.2,10.4,10.9,10.9,18.9c0.7,14.2-3.5,27.1-10.8,39c-3.5,5.9-8,11-13.6,15c-5,3.5-10.4,5.7-16.6,5.3
			c-1.3-0.1-2.5,0-3.8,0c-2.7,0.1-5,2.3-5.1,5C656,462.4,656.1,465.4,656.1,469.2z M659.1,433.7c0.1,1.6,0.1,3.2,0.4,4.8
			c0.5,2.4,0.6,2.5,2.8,1.5c12.1-6,19.2-15.7,21.3-29c0.3-1.9,0.4-3.8,0.8-5.6c0.2-8.2-3.9-9-5.3-8.7c-2.9,0.6-5.2,2.3-7.1,4.5
			C664.1,410.5,660.1,421.5,659.1,433.7z"/>
		<path id="XMLID_9480_" class="st1" d="M423.9,270.1c-1.4,17.7-8.3,34.2-23.8,46.5c-5.1,4-11.1,5.6-17.3,6.7
			c-1.2,0.2-2.2,0.1-3.9-0.1c-2.7-0.3-3.4,1.5-3.6,3c-0.6,7.1-2.2,14.1-1.3,21.3c1.4,10.1,11.1,10,15.5,7.7
			c4.8-2.5,11.4-11,14.1-16.9c2.4-5.4,8.4-7.2,13.6-5.7c1.4,0.4,2.7,1.1,4,1.8c5.9,3.3,9.3,9.3,7.9,14c-1.1,3.5-2.2,7.2-4,10.3
			c-8.8,14.7-20.6,25.5-38.9,26.5c-0.7,0-1.4,0.2-2.2,0.2c-10.5,0.7-19-3.3-26.1-11c-6.2-7.4-15.8-20-15.8-38.2
			c0-14,1.6-27.7,4.5-41.4c2.3-10.9,5.5-21.6,11-31.4c6.4-11.4,16-19.3,28.4-23.3c11.9-3.9,26.4,1.2,33.1,10.7
			C422.7,256.2,423.8,262.3,423.9,270.1z M378,302.4c0,2,0.2,3.8,0.6,5.7c0.2,0.8,0.4,1.2,1.5,0.7c3.1-1.6,6-3.3,8.6-5.6
			c7.5-6.7,11.4-15.4,13.6-24.9c0.9-4,0.2-8-1-11.9c-0.4-1.2-1.2-1.7-2.5-1.7c-4.2,0.1-7.1,2.5-9.3,5.6
			C382.5,279.9,378.7,290.7,378,302.4z"/>
		<path id="XMLID_9479_" class="st1" d="M463,453c0.2,2.6-1,4.3-2.6,6.2c-4.4,5.3-15.6,17.6-26.8,32.9c-1.2,1.6-3.7,5.6-4.3,7.5
			c-1.2,3.7,0.3,7.2,3.8,9c13.1,6.6,23.6,16.2,30.6,29c5.7,10.3,6,21.5,0.1,32.1c-8.1,14.6-18.1,27.9-28.4,40.9
			c-3.8,4.8-8.6,13.8-20.8,4.9c-2.7-2-5.4-3.7-7.6-6.2c-3.3-3.7-5.3-9.5-1.8-14.5c9.1-13,28.1-40.8,28.7-41.7
			c3.2-5.1,2.4-9.1-2.1-13.3c-11-10.1-21.5-20.7-31-32.3c-4-4.8-6.2-10.5-6.9-16.7c-0.4-4.2,0.6-8.1,3.3-11.5
			c6.1-7.6,32.2-40.5,43.1-45.3c6.3-2.8,12.4-1.1,14.3,0.9C459.6,440,461.8,446.3,463,453z"/>
		<path id="XMLID_9478_" class="st1" d="M240.7,576.2c-0.3-16.8-0.7-33.5-1-50.3c-0.1-4-0.2-8-0.3-12.1c-0.1-1.3,0.3-1.7,1.6-1.7
			c5.8,0.1,11.6,0,17.4,0c0.9,0,1.7,0.2,2.5,0.5c4.6,1.9,9.3,3.8,13.9,5.6c1.1,0.4,0.8,1.2,0.8,1.9c-0.1,8-0.2,16-0.2,24
			c-0.2,27.1-0.4,54.3-0.6,81.4c0,4.4-0.1,8.8-0.2,13.3c0,1.9-0.4,3.7-1.2,5.4c-0.9,1.8-2.1,3.3-4.2,3.6c-6,1.1-12,1.7-18.1,0.4
			c-1.8-0.4-3.7-0.6-4.7-2.9c-0.6-1.3-2.8-1.8-3.5-3.5c-0.5-1.2-1-2.4-1-3.8c-0.4-17.9-0.8-35.9-1.1-53.8c-0.1-2.7,0-5.4,0-8.1
			C240.9,576.2,240.8,576.2,240.7,576.2z"/>
		<path id="XMLID_9476_" class="st1" d="M478.6,503.1c-0.6-21-1.1-42.1-1.7-63.1c0-1.4,0.3-1.8,1.7-1.7c5.6,0.1,11.2,0,16.8,0
			c0.9,0,1.7,0.2,2.5,0.5c4.1,1.7,8.1,3.4,12.2,5c2,0.8,2.9,2.6,2.9,4.3c0,9.4-1.7,80.4-2,96.2c-0.2,7.8-0.7,24.4-0.7,24.9
			c-0.4,5.7-2.2,7.4-7.9,7.7c-3.6,0.2-7.2,0.2-10.9-0.4c-3.6-0.5-6.8-1.7-9.3-4.3c-1.5-1.6-1.8-3.9-1.9-6.1c-0.2-4.7-0.3-9.4-0.4-14
			C479.5,535.8,479.1,519.4,478.6,503.1C478.7,503.1,478.6,503.1,478.6,503.1z"/>
		<path id="XMLID_9475_" class="st1" d="M157.9,420.1c-0.4,18.7-0.9,37.3-1.3,56c0,2.1-0.7,4.1-1.4,6.1c-0.3,1-1,1.8-2.2,2.1
			c-6.4,1.4-12.9,2.2-19.4,0.7c-4-0.9-7.1-4.2-7.2-8.8c-0.5-23.1-1.3-46.3-2-69.4c-0.5-16.5-1-33-1.5-49.4c-0.1-1.7,0.4-2.2,2.1-2.3
			c5.3-0.2,10.7-0.7,16-1.1c0.9-0.1,1.8,0,2.7,0.4c4.1,1.7,8.3,3.4,12.4,5.1c1.9,0.8,3,2.5,3,4.8C158.7,383,158.3,401.6,157.9,420.1
			C157.9,420.1,157.9,420.1,157.9,420.1z"/>
		<path id="XMLID_9464_" class="st2" d="M135.3,339.6c-6.2-6.1-12-12.2-17.8-18.7c-1.4-1.6-1.2-3.5,0.4-4.9c5-4.5,9.9-9.1,14.9-13.7
			c2.3-2.1,6.2-3.5,8.3-1.4c1,0.9,12.1,12.4,15,15.5c3.6,3.8,3.4,6,1.5,7.5c-1.2,1-16.8,16.1-17.7,16.8
			C138.4,341.9,136.2,340.5,135.3,339.6z"/>
		<path id="XMLID_8618_" class="st3" d="M586.8,194.2c-2.9,0.5-5.2,0.5-6.6-2.6c-0.9-2.1-2.4-3.9-3.7-5.9c-0.7-1.1-4.3-1.8-5.3-1.1
			c-0.6,0.4-0.3,1-0.3,1.4c0,2.3-0.1,4.6,0,6.9c0,1.1-0.4,1.3-1.4,1.3c-1,0-1.4-0.3-1.4-1.3c0-7.5,0-15,0-22.6c0-0.6,0-1.2,0.9-1.2
			c3.5,0.1,7-0.3,10.5,0.3c3.5,0.7,5.6,2.7,6,5.6c0.5,4-0.7,6.3-4.2,8c-0.8,0.4-1.7,0.8-2.7,1.2C581.4,187.8,584.1,191,586.8,194.2z
			 M570.9,176.8c0,1.3,0,2.6,0,3.9c0,0.5,0,1.1,0.7,1.1c2.6,0,5.1,0.3,7.6-0.6c2-0.8,2.8-2.2,2.8-4.5c0-2.1-1.1-3.4-3-4.1
			c-1.1-0.4-2.2-0.5-3.3-0.5c-4.8-0.1-4.8-0.1-4.8,4.5C570.9,176.7,570.9,176.8,570.9,176.8z"/>
	</g>
	<path id="XMLID_8184_" class="st2" d="M260.1,502.9c-7.1-5-13.9-10-20.7-15.5c-1.6-1.3-1.7-3.2-0.4-4.9c4.2-5.3,8.3-10.6,12.4-15.9
		c1.9-2.4,5.5-4.5,8-2.8c1.1,0.8,13.9,10.2,17.4,12.8c4.2,3.1,4.4,5.3,2.8,7.2c-1.1,1.2-13.9,18.7-14.7,19.5
		C263.5,504.7,261.1,503.6,260.1,502.9z"/>
	<path id="XMLID_268_" class="st2" d="M497.2,429.8c-7.1-5-13.9-10-20.7-15.5c-1.6-1.3-1.7-3.2-0.4-4.9c4.2-5.3,8.3-10.6,12.4-15.9
		c1.9-2.4,5.5-4.5,8-2.8c1.1,0.8,13.9,10.2,17.4,12.8c4.2,3.1,4.4,5.3,2.8,7.2c-1.1,1.2-13.9,18.7-14.7,19.5
		C500.6,431.6,498.3,430.6,497.2,429.8z"/>
</g>
</svg>
