<?xml version="1.0" encoding="UTF-8" standalone="no"?>
<!-- Created with Inkscape (http://www.inkscape.org/) -->

<svg
   xmlns:dc="http://purl.org/dc/elements/1.1/"
   xmlns:cc="http://creativecommons.org/ns#"
   xmlns:rdf="http://www.w3.org/1999/02/22-rdf-syntax-ns#"
   xmlns:svg="http://www.w3.org/2000/svg"
   xmlns="http://www.w3.org/2000/svg"
   xmlns:sodipodi="http://sodipodi.sourceforge.net/DTD/sodipodi-0.dtd"
   xmlns:inkscape="http://www.inkscape.org/namespaces/inkscape"
   width="210mm"
   height="297mm"
   viewBox="0 0 744.09448819 1052.3622047"
   id="svg2"
   version="1.1"
   inkscape:version="0.91 r13725"
   sodipodi:docname="rentals.svg">
  <defs
     id="defs4" />
  <sodipodi:namedview
     id="base"
     pagecolor="#ffffff"
     bordercolor="#666666"
     borderopacity="1.0"
     inkscape:pageopacity="0.0"
     inkscape:pageshadow="2"
     inkscape:zoom="0.2799099"
     inkscape:cx="-96.428571"
     inkscape:cy="67.837688"
     inkscape:document-units="px"
     inkscape:current-layer="layer1"
     showgrid="false"
     inkscape:window-width="1168"
     inkscape:window-height="902"
     inkscape:window-x="880"
     inkscape:window-y="245"
     inkscape:window-maximized="0" />
  <metadata
     id="metadata7">
    <rdf:RDF>
      <cc:Work
         rdf:about="">
        <dc:format>image/svg+xml</dc:format>
        <dc:type
           rdf:resource="http://purl.org/dc/dcmitype/StillImage" />
        <dc:title></dc:title>
      </cc:Work>
    </rdf:RDF>
  </metadata>
  <g
     inkscape:label="Layer 1"
     inkscape:groupmode="layer"
     id="layer1">
    <g
       id="g4588"
       transform="matrix(5.688889,0,0,5.688889,101.25782,214.03195)"
       style="fill:#54b3b7;fill-opacity:1">
      <g
         id="g4548"
         style="fill:#54b3b7;fill-opacity:1">
        <path
           id="path4550"
           d="m 14.999,80 c 0,5.523 4.477,10 10.001,10 5.524,0 9.999,-4.477 9.999,-10 0,-5.523 -4.475,-10 -9.999,-10 -5.524,0 -10.001,4.477 -10.001,10 z m 50,0 c 0,5.523 4.477,10 10.001,10 5.524,0 9.999,-4.477 9.999,-10 0,-5.523 -4.475,-10 -9.999,-10 -5.524,0 -10.001,4.477 -10.001,10 z M 32.735,56.362 88.077,40.55 C 89.135,40.247 90,39.1 90,38 l 0,-27.5 -70.5,0 0,-8.5 c 0,-1.1 -0.899,-2 -2,-2 L 2,0 C 0.899,0 0,0.9 0,2 l 0,8 9.718,0 9.839,45.284 0.943,4.716 0,7.5 c 0,1.1 0.899,2 2,2 l 2.5,0 50,0 13,0 c 1.101,0 2,-0.9 2,-2 L 90,60 33.761,60 c -5.748,0 -5.865,-2.253 -1.026,-3.638 z"
           inkscape:connector-curvature="0"
           style="fill:#54b3b7;fill-opacity:1" />
      </g>
      <g
         id="g4552"
         style="fill:#54b3b7;fill-opacity:1" />
      <g
         id="g4554"
         style="fill:#54b3b7;fill-opacity:1" />
      <g
         id="g4556"
         style="fill:#54b3b7;fill-opacity:1" />
      <g
         id="g4558"
         style="fill:#54b3b7;fill-opacity:1" />
      <g
         id="g4560"
         style="fill:#54b3b7;fill-opacity:1" />
      <g
         id="g4562"
         style="fill:#54b3b7;fill-opacity:1" />
      <g
         id="g4564"
         style="fill:#54b3b7;fill-opacity:1" />
      <g
         id="g4566"
         style="fill:#54b3b7;fill-opacity:1" />
      <g
         id="g4568"
         style="fill:#54b3b7;fill-opacity:1" />
      <g
         id="g4570"
         style="fill:#54b3b7;fill-opacity:1" />
      <g
         id="g4572"
         style="fill:#54b3b7;fill-opacity:1" />
      <g
         id="g4574"
         style="fill:#54b3b7;fill-opacity:1" />
      <g
         id="g4576"
         style="fill:#54b3b7;fill-opacity:1" />
      <g
         id="g4578"
         style="fill:#54b3b7;fill-opacity:1" />
      <g
         id="g4580"
         style="fill:#54b3b7;fill-opacity:1" />
    </g>
  </g>
</svg>
