<svg width="48" height="40" viewBox="0 0 48 40" fill="none" xmlns="http://www.w3.org/2000/svg">
<path d="M44.1018 3.85268C43.4624 3.18921 42.694 2.85715 41.7957 2.85715H9.14286C8.24493 2.85715 7.47644 3.18921 6.83662 3.85268C6.19715 4.51637 5.87756 5.31372 5.87756 6.24554V29.2858C5.87756 30.2178 6.19715 31.0151 6.83662 31.6789C7.47644 32.3424 8.24493 32.6739 9.14286 32.6739H20.2451C20.2451 33.2102 20.1361 33.7613 19.9184 34.3256C19.7008 34.8904 19.4831 35.3843 19.2654 35.8076C19.0479 36.2315 18.9391 36.5417 18.9391 36.7392C18.9391 37.1062 19.0682 37.4246 19.3268 37.6921C19.5852 37.9607 19.8913 38.0952 20.2451 38.0952H30.694C31.0478 38.0952 31.354 37.9608 31.6124 37.6921C31.8712 37.4247 32.0003 37.1063 32.0003 36.7392C32.0003 36.5562 31.8912 36.2489 31.6736 35.8184C31.4559 35.3881 31.2381 34.8863 31.0207 34.3151C30.803 33.7433 30.6941 33.1963 30.6941 32.6739H41.7963C42.6941 32.6739 43.4624 32.3424 44.1018 31.6789C44.7415 31.0152 45.0612 30.2179 45.0612 29.2858V6.24554C45.0615 5.31372 44.7414 4.51637 44.1018 3.85268ZM42.4489 23.8645C42.4489 24.0481 42.3844 24.2066 42.2551 24.341C42.1258 24.4748 41.9726 24.5417 41.7957 24.5417H9.14286C8.96609 24.5417 8.81298 24.4748 8.68375 24.341C8.55458 24.2062 8.48989 24.0481 8.48989 23.8645V6.24554C8.48989 6.06197 8.55437 5.90324 8.68375 5.76914C8.81305 5.63526 8.96616 5.56798 9.14286 5.56798H41.7962C41.9729 5.56798 42.1263 5.63503 42.2551 5.76914C42.3844 5.90331 42.4489 6.06204 42.4489 6.24554V23.8645Z" fill="#FFA500"/>
<path d="M37.3445 12.6891L33.0537 15.0598L30.3264 13.2091L30.0117 10.0255L34.3025 7.65482C32.2441 6.31593 29.5338 6.11149 27.2921 7.35011C25.0918 8.5658 23.9259 10.8496 24.0583 13.1783C23.9466 13.2236 23.8364 13.2752 23.7287 13.3347L14.9164 18.2035C13.4417 19.0182 12.9601 20.8602 13.8408 22.3177C14.7214 23.7751 16.6309 24.296 18.1057 23.4812L26.918 18.6123C27.0257 18.5528 27.1273 18.4873 27.2242 18.4175C29.2679 19.6901 31.9193 19.8647 34.1196 18.649C36.3613 17.4104 37.5296 15.0631 37.3445 12.6891Z" fill="#FFA500"/>
</svg>
