<svg width="134" height="78" viewBox="0 0 134 78" fill="none" xmlns="http://www.w3.org/2000/svg">
<g clip-path="url(#clip0)">
<path d="M87.0332 74H75.5898V17.1465H46.4819V74H35.0386V7.88281H87.0332V74ZM94.4605 45.6641H86.6499V74H75.2066V7.88281H86.6499V35.6738H92.962L112.397 7.88281H126.475L103.77 39.5337L128.473 74H114.668L94.4605 45.6641Z" fill="#434141"/>
<path d="M8.32422 23.8123L8.81971 24.3302C9.81404 25.184 10.9568 25.8184 12.157 26.2941L12.4631 55.0334C11.2731 55.5099 10.144 56.145 9.16803 56.9994L8.68368 57.5177C4.80894 61.4092 5.00413 67.2971 9.31838 71.0016C10.5736 72.0794 12.0513 72.8257 13.6122 73.3012L13.5123 63.9992C13.507 63.5091 13.642 63.0517 13.861 62.6338C14.4491 61.5019 15.746 60.7009 17.283 60.6981C18.3327 60.6978 19.2895 61.0662 19.985 61.6634C20.3056 61.9386 20.5542 62.2723 20.7465 62.6316C20.969 63.0539 21.1193 63.5067 21.1219 63.999L21.2244 73.2987C22.7751 72.8222 24.2367 72.0749 25.4688 70.9963C29.7034 67.2891 29.7721 61.4011 25.8137 57.5121L25.3183 56.9942C24.3239 56.1404 23.1812 55.506 21.9837 55.0279L21.6777 26.2933C22.8622 25.8122 23.9913 25.177 24.9673 24.3226L25.449 23.802C29.3317 19.9128 29.1312 14.0249 24.817 10.3205C23.5618 9.24265 22.0868 8.48935 20.5231 8.0208L20.6231 17.3228C20.6283 17.8083 20.4934 18.2703 20.2825 18.6905C19.6944 19.8225 18.3949 20.6257 16.8525 20.6238C15.8082 20.6288 14.8459 20.2558 14.1504 19.6586C13.8299 19.3833 13.5814 19.0544 13.3863 18.688C13.1611 18.268 13.0082 17.813 13.011 17.3253L12.9111 8.02324C11.355 8.49985 9.89871 9.24704 8.66668 10.3256C4.43456 14.0353 4.36589 19.9233 8.32422 23.8123Z" fill="#434141"/>
</g>
<defs>
<clipPath id="clip0">
<rect width="134" height="78" fill="white"/>
</clipPath>
</defs>
</svg>
