<svg width="49" height="42" viewBox="0 0 49 42" fill="none" xmlns="http://www.w3.org/2000/svg">
<path d="M41.9751 4.18916C41.3754 3.55045 40.6548 3.23077 39.8123 3.23077H9.18749C8.34533 3.23077 7.62457 3.55045 7.02449 4.18916C6.42474 4.82808 6.125 5.59567 6.125 6.49272V28.6731C6.125 29.5704 6.42474 30.3379 7.02449 30.977C7.62457 31.6157 8.34533 31.9348 9.18749 31.9348H19.6001C19.6001 32.4511 19.498 32.9816 19.2938 33.5249C19.0897 34.0686 18.8855 34.544 18.6813 34.9516C18.4773 35.3597 18.3752 35.6583 18.3752 35.8484C18.3752 36.2018 18.4964 36.5082 18.7389 36.7658C18.9812 37.0243 19.2684 37.1539 19.6001 37.1539H29.4001C29.7319 37.1539 30.0191 37.0244 30.2615 36.7658C30.5041 36.5083 30.6253 36.2018 30.6253 35.8484C30.6253 35.6722 30.523 35.3764 30.3188 34.962C30.1146 34.5478 29.9104 34.0647 29.7065 33.5148C29.5023 32.9643 29.4002 32.4377 29.4002 31.9348H39.8128C40.6549 31.9348 41.3755 31.6157 41.9752 30.977C42.5751 30.338 42.875 29.5705 42.875 28.6731V6.49272C42.8752 5.59567 42.5751 4.82808 41.9751 4.18916ZM40.4249 23.4542C40.4249 23.6309 40.3644 23.7835 40.2432 23.9128C40.1218 24.0417 39.9782 24.1061 39.8123 24.1061H9.18749C9.0217 24.1061 8.8781 24.0417 8.75689 23.9128C8.63575 23.7831 8.57508 23.6309 8.57508 23.4542V6.49272C8.57508 6.31599 8.63555 6.16319 8.75689 6.03409C8.87817 5.90521 9.02177 5.84044 9.18749 5.84044H39.8128C39.9784 5.84044 40.1223 5.90499 40.2432 6.03409C40.3644 6.16326 40.4249 6.31607 40.4249 6.49272V23.4542Z" fill="#FFA500"/>
<path d="M36.4013 12.4369L32.4205 14.6992L29.8902 12.9331L29.5982 9.89513L33.5791 7.63282C31.6693 6.35516 29.1549 6.16006 27.0751 7.34204C25.0337 8.50214 23.952 10.6815 24.0749 12.9037C23.9713 12.947 23.869 12.9962 23.7691 13.0529L15.5934 17.6991C14.2252 18.4766 13.7784 20.2344 14.5954 21.6251C15.4125 23.0159 17.184 23.5131 18.5523 22.7355L26.728 18.0892C26.8279 18.0325 26.9222 17.97 27.0121 17.9033C28.9082 19.1178 31.3681 19.2844 33.4094 18.1242C35.4891 16.9422 36.5731 14.7023 36.4013 12.4369Z" fill="#FFA500"/>
</svg>
