<?xml version="1.0" encoding="iso-8859-1"?>
<!-- Generator: Adobe Illustrator 16.0.0, SVG Export Plug-In . SVG Version: 6.00 Build 0)  -->
<!DOCTYPE svg PUBLIC "-//W3C//DTD SVG 1.1//EN" "http://www.w3.org/Graphics/SVG/1.1/DTD/svg11.dtd">
<svg xmlns="http://www.w3.org/2000/svg" xmlns:xlink="http://www.w3.org/1999/xlink" version="1.1" id="Capa_1" x="0px" y="0px" width="512px" height="512px" viewBox="0 0 204.51 204.51" style="enable-background:new 0 0 204.51 204.51;" xml:space="preserve">
<g>
	<g>
		<path d="M86.599,43.212c10.875,0,19.708-12.623,19.708-23.501C106.306,8.823,97.474,0,86.599,0    C75.714,0,66.885,8.829,66.885,19.71C66.885,30.589,75.714,43.212,86.599,43.212z" fill="#ffa500"/>
		<path d="M168.897,87.65c-1.425-5.301-5.779-9.191-11.101-10.114l-3.489-13.034l0.066-0.066c3.1-2.987,3.186-7.925,0.195-11.019    c-1.065-1.096-2.399-1.684-3.775-2.021l-2.484-9.265c4.153-3.468,5.974-9.015,4.555-14.31c-1.139-4.247-4.159-7.639-8.287-9.311    l-4.348-1.757l3.361,12.538l-3.988,3.081l-5-0.667l-3.36-12.553l-2.893,3.711c-2.734,3.51-3.653,7.961-2.515,12.203    c1.418,5.307,5.772,9.197,11.112,10.114l3.069,11.459l-8.854,8.549l-6.839-10.583c-0.164-0.268-0.438-0.417-0.639-0.654    c-0.348-0.417-0.688-0.804-1.121-1.148c-0.414-0.334-0.864-0.572-1.339-0.81c-0.28-0.143-0.494-0.381-0.798-0.487    c-0.755-0.273-18.676-6.701-33.835-6.701c-15.156,0-33.076,6.428-33.831,6.701c-0.244,0.089-0.405,0.283-0.643,0.387    c-0.523,0.25-1.004,0.524-1.458,0.886c-0.369,0.292-0.679,0.6-0.993,0.947c-0.344,0.39-0.636,0.779-0.898,1.236    c-0.262,0.457-0.454,0.91-0.63,1.409c-0.091,0.274-0.274,0.487-0.341,0.779l-12.47,56.118c-0.929,4.201,1.714,8.36,5.916,9.292    c0.575,0.134,1.142,0.195,1.696,0.195c3.574,0,6.798-2.479,7.608-6.107l11.508-51.786c0.807-0.249,1.717-0.518,2.707-0.791v53.204    l-6.202,77.137c-0.414,5.146,3.422,9.658,8.574,10.065c0.255,0.019,0.502,0.03,0.758,0.03c4.823,0,8.917-3.708,9.311-8.604    l5.605-69.715c1.16,0.512,2.433,0.804,3.772,0.804c1.343,0,2.618-0.292,3.772-0.804l5.605,69.715    c0.393,4.896,4.491,8.604,9.313,8.604c0.256,0,0.506-0.006,0.761-0.03c5.152-0.407,8.982-4.926,8.574-10.065l-6.205-77.137V64.073    c1.705,0.487,3.166,0.929,4.287,1.291l10.504,16.249c1.266,1.958,3.336,3.249,5.656,3.51c0.299,0.03,0.591,0.049,0.889,0.049    c2.01,0,3.952-0.779,5.414-2.186l9.456-9.13l1.803,6.734c-4.165,3.468-5.992,9.012-4.567,14.31    c1.139,4.235,4.153,7.633,8.275,9.311l4.359,1.778l-3.36-12.559l3.994-3.081l4.993,0.67l3.367,12.55l2.887-3.702    C169.11,96.339,170.023,91.888,168.897,87.65z" fill="#ffa500"/>
	</g>
</g>
<g>
</g>
<g>
</g>
<g>
</g>
<g>
</g>
<g>
</g>
<g>
</g>
<g>
</g>
<g>
</g>
<g>
</g>
<g>
</g>
<g>
</g>
<g>
</g>
<g>
</g>
<g>
</g>
<g>
</g>
</svg>
