<svg width="210" height="87" viewBox="0 0 210 87" fill="none" xmlns="http://www.w3.org/2000/svg">
<path d="M68.4892 26.0086C68.4892 25.2916 68.1144 24.6268 67.5009 24.2556L37.0134 5.80815C36.363 5.41461 35.5482 5.41349 34.8968 5.80524L4.50673 24.0801C3.89055 24.4506 3.51367 25.117 3.51367 25.836V61.6025C3.51367 62.3229 3.89195 62.9903 4.50998 63.3604L34.9086 81.5639C35.5539 81.9503 36.3591 81.9521 37.0061 81.5686L67.485 63.5018C68.1075 63.1328 68.4892 62.4629 68.4892 61.7392V26.0086Z" fill="#928F8E"/>
<path fill-rule="evenodd" clip-rule="evenodd" d="M37.2772 5.36992L67.7647 23.8174C68.5315 24.2813 69 25.1124 69 26.0087V61.7393C69 62.6438 68.5229 63.4813 67.7448 63.9425L37.2659 82.0093C36.4571 82.4887 35.4507 82.4865 34.644 82.0034L4.24539 63.7999C3.47285 63.3373 3 62.503 3 61.6025V25.8361C3 24.9373 3.4711 24.1043 4.24132 23.6411L34.6314 5.36629C35.4457 4.8766 36.4642 4.878 37.2772 5.36992ZM67.4995 24.2556C68.113 24.6268 68.4878 25.2917 68.4878 26.0087V61.7393C68.4878 62.4629 68.1061 63.1329 67.4836 63.5019L37.0047 81.5686C36.3577 81.9522 35.5525 81.9504 34.9072 81.564L4.50855 63.3604C3.89053 62.9903 3.51225 62.3229 3.51225 61.6025V25.8361C3.51225 25.117 3.88912 24.4506 4.5053 24.0801L34.8953 5.80528C35.5468 5.41353 36.3616 5.41465 37.012 5.80818L67.4995 24.2556Z" fill="#928F8E"/>
<path fill-rule="evenodd" clip-rule="evenodd" d="M35.9511 8.75764L6.58715 26.4154V61.0218L35.964 78.6135L65.4157 61.1555V26.5862L35.9511 8.75764ZM67.5009 24.2556C68.1144 24.6268 68.4892 25.2916 68.4892 26.0086V61.7392C68.4892 62.4629 68.1075 63.1328 67.485 63.5018L37.0061 81.5686C36.3591 81.9521 35.5539 81.9503 34.9086 81.5639L4.50998 63.3604C3.89195 62.9903 3.51367 62.3229 3.51367 61.6025V25.836C3.51367 25.117 3.89055 24.4506 4.50673 24.0801L34.8968 5.80524C35.5482 5.41349 36.363 5.41461 37.0134 5.80815L67.5009 24.2556Z" fill="white"/>
<path fill-rule="evenodd" clip-rule="evenodd" d="M35.8672 9.38626L6.93803 26.7508V60.6717L35.8694 77.9649L64.8806 60.7996V26.9096L35.8672 9.38626ZM65.3928 26.6206L35.8681 8.78833L6.42578 26.4609V60.9623L35.8681 78.5609L65.3928 61.0917V26.6206Z" fill="#767372"/>
<path fill-rule="evenodd" clip-rule="evenodd" d="M37.0117 15.9836C37.0117 15.971 36.9981 15.9632 36.9872 15.9695L21.2216 25.131H21.1375V25.1797L21.128 25.1852V29.25L21.1375 29.2445V34.9985L14.7715 31.2542V35.4142L21.1375 39.1585V40.4146L17.5898 38.3278V42.4878L21.1375 44.5746V60.955L24.7233 63.5579V52.0972L34.0648 57.5916L34.1258 69.5936L34.1993 69.5934V69.7227H37.0302V57.6859L46.4242 52.0409V64.106L49.8989 62.1686V40.6369V36.6172L37.0302 29.1331V15.9703L37.0117 15.9836V15.9836ZM46.4242 47.8577V38.616L34.0798 31.6509L34.0803 21.5813L24.7233 27.1214V37.1075L37.0302 44.0361V49.7621V53.6943L46.4242 47.8577ZM34.0162 47.9867L34.0092 46.5748L24.7233 41.2675V42.5236L34.0162 47.9867ZM34.0438 53.4193L34.0373 52.1617L24.7233 46.6836V47.9372L34.0438 53.4193Z" fill="white"/>
<path fill-rule="evenodd" clip-rule="evenodd" d="M21.1247 25.185L21.1342 25.1795V25.1308H21.2182L36.9839 15.9693C36.9882 15.9667 36.9931 15.9665 36.9973 15.9679C36.9988 15.9685 37.0002 15.9692 37.0015 15.9701C37.0055 15.973 37.0083 15.9777 37.0083 15.9834L37.0268 15.9701V29.1329L49.8955 36.617V62.1684L46.4208 64.1057V52.0407L37.0268 57.6857V69.7224H34.1964L34.1959 69.5931L34.1224 69.5934L34.0614 57.5914L24.7199 52.097V63.5576L21.1342 60.9547V44.5744L17.5865 42.4876V38.3276L21.1342 40.4144V39.1583L14.7681 35.4139V31.2539L21.1342 34.9983V29.2442L21.1247 29.2497V25.185ZM20.6219 30.1327L20.6124 30.1382V24.8897L20.6219 24.8842V24.6185H21.0802L36.7265 15.5264C36.7613 15.5062 36.7969 15.4905 36.8329 15.4789L37.5391 14.9731V28.8383L50.4077 36.3224V62.4693L45.9086 64.9778V52.9461L37.5391 57.9755V70.2347H33.6837V70.1071L33.6128 70.1074L33.5506 57.8852L25.2321 52.9925V64.5625L20.6219 61.2159V44.8673L17.0742 42.7806V37.432L20.6219 39.5188V39.4512L14.2559 35.7069V30.3584L20.6219 34.1027V30.1327ZM36.5146 15.9834H36.4961C36.4961 16.0312 36.5026 16.0768 36.5146 16.1196V15.9834ZM33.5641 31.9498L33.5646 22.4797L25.2321 27.4132V36.8078L37.5391 43.7364V52.7727L45.9086 47.5726V38.9149L33.5641 31.9498ZM46.4208 38.6157V47.8574L37.0268 53.6941V44.0358L24.7199 37.1073V27.1212L34.0769 21.581L34.0764 31.6506L46.4208 38.6157ZM33.4951 46.8726L25.2321 42.15V42.2303L33.4962 47.0885L33.4951 46.8726ZM34.0059 46.5746L24.7199 41.2673V42.5234L34.0129 47.9865L34.0059 46.5746ZM33.5231 52.4554L25.2321 47.5789V47.644L33.5235 52.5208L33.5231 52.4554ZM34.0339 52.1615L24.7199 46.6834V47.937L34.0404 53.4191L34.0339 52.1615Z" fill="#787474"/>
<path d="M88.54 33V43.5H86.59V39H81.16V43.5H79.21V33H81.16V37.335H86.59V33H88.54Z" fill="#928F8E"/>
<path d="M98.7754 39.54C98.7754 39.67 98.7654 39.855 98.7454 40.095H92.4604C92.5704 40.685 92.8554 41.155 93.3154 41.505C93.7854 41.845 94.3654 42.015 95.0554 42.015C95.9354 42.015 96.6604 41.725 97.2304 41.145L98.2354 42.3C97.8754 42.73 97.4204 43.055 96.8704 43.275C96.3204 43.495 95.7004 43.605 95.0104 43.605C94.1304 43.605 93.3554 43.43 92.6854 43.08C92.0154 42.73 91.4954 42.245 91.1254 41.625C90.7654 40.995 90.5854 40.285 90.5854 39.495C90.5854 38.715 90.7604 38.015 91.1104 37.395C91.4704 36.765 91.9654 36.275 92.5954 35.925C93.2254 35.575 93.9354 35.4 94.7254 35.4C95.5054 35.4 96.2004 35.575 96.8104 35.925C97.4304 36.265 97.9104 36.75 98.2504 37.38C98.6004 38 98.7754 38.72 98.7754 39.54ZM94.7254 36.9C94.1254 36.9 93.6154 37.08 93.1954 37.44C92.7854 37.79 92.5354 38.26 92.4454 38.85H96.9904C96.9104 38.27 96.6654 37.8 96.2554 37.44C95.8454 37.08 95.3354 36.9 94.7254 36.9Z" fill="#928F8E"/>
<path d="M104.471 43.605C103.641 43.605 102.896 43.43 102.236 43.08C101.576 42.73 101.061 42.245 100.691 41.625C100.321 40.995 100.136 40.285 100.136 39.495C100.136 38.705 100.321 38 100.691 37.38C101.061 36.76 101.571 36.275 102.221 35.925C102.881 35.575 103.631 35.4 104.471 35.4C105.261 35.4 105.951 35.56 106.541 35.88C107.141 36.2 107.591 36.66 107.891 37.26L106.451 38.1C106.221 37.73 105.931 37.455 105.581 37.275C105.241 37.085 104.866 36.99 104.456 36.99C103.756 36.99 103.176 37.22 102.716 37.68C102.256 38.13 102.026 38.735 102.026 39.495C102.026 40.255 102.251 40.865 102.701 41.325C103.161 41.775 103.746 42 104.456 42C104.866 42 105.241 41.91 105.581 41.73C105.931 41.54 106.221 41.26 106.451 40.89L107.891 41.73C107.581 42.33 107.126 42.795 106.526 43.125C105.936 43.445 105.251 43.605 104.471 43.605Z" fill="#928F8E"/>
<path d="M115.814 37.08H113.009V43.5H111.134V37.08H108.314V35.49H115.814V37.08Z" fill="#928F8E"/>
<path d="M120.159 35.4C121.339 35.4 122.239 35.685 122.859 36.255C123.489 36.815 123.804 37.665 123.804 38.805V43.5H122.034V42.525C121.804 42.875 121.474 43.145 121.044 43.335C120.624 43.515 120.114 43.605 119.514 43.605C118.914 43.605 118.389 43.505 117.939 43.305C117.489 43.095 117.139 42.81 116.889 42.45C116.649 42.08 116.529 41.665 116.529 41.205C116.529 40.485 116.794 39.91 117.324 39.48C117.864 39.04 118.709 38.82 119.859 38.82H121.929V38.7C121.929 38.14 121.759 37.71 121.419 37.41C121.089 37.11 120.594 36.96 119.934 36.96C119.484 36.96 119.039 37.03 118.599 37.17C118.169 37.31 117.804 37.505 117.504 37.755L116.769 36.39C117.189 36.07 117.694 35.825 118.284 35.655C118.874 35.485 119.499 35.4 120.159 35.4ZM119.904 42.24C120.374 42.24 120.789 42.135 121.149 41.925C121.519 41.705 121.779 41.395 121.929 40.995V40.065H119.994C118.914 40.065 118.374 40.42 118.374 41.13C118.374 41.47 118.509 41.74 118.779 41.94C119.049 42.14 119.424 42.24 119.904 42.24Z" fill="#928F8E"/>
<path d="M126.124 35.49H127.999V38.745H132.034V35.49H133.909V43.5H132.034V40.335H127.999V43.5H126.124V35.49Z" fill="#928F8E"/>
<path d="M144.972 41.91V45.285H143.217V43.5H137.037V45.285H135.297V41.91H135.672C136.182 41.89 136.527 41.565 136.707 40.935C136.897 40.295 137.022 39.395 137.082 38.235L137.187 35.49H143.787V41.91H144.972ZM138.792 38.37C138.752 39.29 138.677 40.04 138.567 40.62C138.457 41.2 138.257 41.63 137.967 41.91H141.912V37.08H138.837L138.792 38.37Z" fill="#928F8E"/>
<path d="M149.631 35.4C150.811 35.4 151.711 35.685 152.331 36.255C152.961 36.815 153.276 37.665 153.276 38.805V43.5H151.506V42.525C151.276 42.875 150.946 43.145 150.516 43.335C150.096 43.515 149.586 43.605 148.986 43.605C148.386 43.605 147.861 43.505 147.411 43.305C146.961 43.095 146.611 42.81 146.361 42.45C146.121 42.08 146.001 41.665 146.001 41.205C146.001 40.485 146.266 39.91 146.796 39.48C147.336 39.04 148.181 38.82 149.331 38.82H151.401V38.7C151.401 38.14 151.231 37.71 150.891 37.41C150.561 37.11 150.066 36.96 149.406 36.96C148.956 36.96 148.511 37.03 148.071 37.17C147.641 37.31 147.276 37.505 146.976 37.755L146.241 36.39C146.661 36.07 147.166 35.825 147.756 35.655C148.346 35.485 148.971 35.4 149.631 35.4ZM149.376 42.24C149.846 42.24 150.261 42.135 150.621 41.925C150.991 41.705 151.251 41.395 151.401 40.995V40.065H149.466C148.386 40.065 147.846 40.42 147.846 41.13C147.846 41.47 147.981 41.74 148.251 41.94C148.521 42.14 148.896 42.24 149.376 42.24Z" fill="#928F8E"/>
<path d="M160.037 35.4C160.817 35.4 161.512 35.57 162.122 35.91C162.742 36.25 163.227 36.73 163.577 37.35C163.927 37.97 164.102 38.685 164.102 39.495C164.102 40.305 163.927 41.025 163.577 41.655C163.227 42.275 162.742 42.755 162.122 43.095C161.512 43.435 160.817 43.605 160.037 43.605C158.957 43.605 158.102 43.245 157.472 42.525V46.41H155.597V35.49H157.382V36.54C157.692 36.16 158.072 35.875 158.522 35.685C158.982 35.495 159.487 35.4 160.037 35.4ZM159.827 42C160.517 42 161.082 41.77 161.522 41.31C161.972 40.85 162.197 40.245 162.197 39.495C162.197 38.745 161.972 38.14 161.522 37.68C161.082 37.22 160.517 36.99 159.827 36.99C159.377 36.99 158.972 37.095 158.612 37.305C158.252 37.505 157.967 37.795 157.757 38.175C157.547 38.555 157.442 38.995 157.442 39.495C157.442 39.995 157.547 40.435 157.757 40.815C157.967 41.195 158.252 41.49 158.612 41.7C158.972 41.9 159.377 42 159.827 42Z" fill="#928F8E"/>
<path d="M172.02 37.08H169.215V43.5H167.34V37.08H164.52V35.49H172.02V37.08Z" fill="#928F8E"/>
<path d="M173.38 35.49H175.255V38.745H179.29V35.49H181.165V43.5H179.29V40.335H175.255V43.5H173.38V35.49Z" fill="#928F8E"/>
<path d="M186.663 35.4C187.843 35.4 188.743 35.685 189.363 36.255C189.993 36.815 190.308 37.665 190.308 38.805V43.5H188.538V42.525C188.308 42.875 187.978 43.145 187.548 43.335C187.128 43.515 186.618 43.605 186.018 43.605C185.418 43.605 184.893 43.505 184.443 43.305C183.993 43.095 183.643 42.81 183.393 42.45C183.153 42.08 183.033 41.665 183.033 41.205C183.033 40.485 183.298 39.91 183.828 39.48C184.368 39.04 185.213 38.82 186.363 38.82H188.433V38.7C188.433 38.14 188.263 37.71 187.923 37.41C187.593 37.11 187.098 36.96 186.438 36.96C185.988 36.96 185.543 37.03 185.103 37.17C184.673 37.31 184.308 37.505 184.008 37.755L183.273 36.39C183.693 36.07 184.198 35.825 184.788 35.655C185.378 35.485 186.003 35.4 186.663 35.4ZM186.408 42.24C186.878 42.24 187.293 42.135 187.653 41.925C188.023 41.705 188.283 41.395 188.433 40.995V40.065H186.498C185.418 40.065 184.878 40.42 184.878 41.13C184.878 41.47 185.013 41.74 185.283 41.94C185.553 42.14 185.928 42.24 186.408 42.24Z" fill="#928F8E"/>
<path d="M199.393 35.49V43.5H197.713V41.085H195.598L193.963 43.5H191.953L193.843 40.83C193.263 40.63 192.818 40.325 192.508 39.915C192.208 39.495 192.058 38.98 192.058 38.37C192.058 37.45 192.383 36.74 193.033 36.24C193.683 35.74 194.578 35.49 195.718 35.49H199.393ZM195.778 37.065C194.568 37.065 193.963 37.52 193.963 38.43C193.963 39.33 194.548 39.78 195.718 39.78H197.713V37.065H195.778Z" fill="#928F8E"/>
<path d="M86.875 58.5V53.19L84.175 57.66H83.365L80.71 53.175V58.5H79V50.49H80.965L83.815 55.5L86.8 50.49H88.555L88.57 58.5H86.875Z" fill="#928F8E"/>
<path d="M98.585 54.54C98.585 54.67 98.575 54.855 98.555 55.095H92.27C92.38 55.685 92.665 56.155 93.125 56.505C93.595 56.845 94.175 57.015 94.865 57.015C95.745 57.015 96.47 56.725 97.04 56.145L98.045 57.3C97.685 57.73 97.23 58.055 96.68 58.275C96.13 58.495 95.51 58.605 94.82 58.605C93.94 58.605 93.165 58.43 92.495 58.08C91.825 57.73 91.305 57.245 90.935 56.625C90.575 55.995 90.395 55.285 90.395 54.495C90.395 53.715 90.57 53.015 90.92 52.395C91.28 51.765 91.775 51.275 92.405 50.925C93.035 50.575 93.745 50.4 94.535 50.4C95.315 50.4 96.01 50.575 96.62 50.925C97.24 51.265 97.72 51.75 98.06 52.38C98.41 53 98.585 53.72 98.585 54.54ZM94.535 51.9C93.935 51.9 93.425 52.08 93.005 52.44C92.595 52.79 92.345 53.26 92.255 53.85H96.8C96.72 53.27 96.475 52.8 96.065 52.44C95.655 52.08 95.145 51.9 94.535 51.9Z" fill="#928F8E"/>
<path d="M104.971 50.88C105.731 50.88 106.401 51.045 106.981 51.375C107.561 51.695 108.011 52.145 108.331 52.725C108.661 53.305 108.826 53.97 108.826 54.72C108.826 55.49 108.646 56.175 108.286 56.775C107.926 57.365 107.421 57.825 106.771 58.155C106.121 58.485 105.381 58.65 104.551 58.65C103.161 58.65 102.086 58.19 101.326 57.27C100.566 56.35 100.186 55.025 100.186 53.295C100.186 51.685 100.531 50.41 101.221 49.47C101.911 48.53 102.966 47.91 104.386 47.61L108.106 46.815L108.376 48.495L105.001 49.185C104.031 49.385 103.306 49.725 102.826 50.205C102.346 50.685 102.066 51.36 101.986 52.23C102.346 51.8 102.781 51.47 103.291 51.24C103.801 51 104.361 50.88 104.971 50.88ZM104.596 57.135C105.286 57.135 105.841 56.915 106.261 56.475C106.691 56.025 106.906 55.455 106.906 54.765C106.906 54.075 106.691 53.52 106.261 53.1C105.841 52.68 105.286 52.47 104.596 52.47C103.896 52.47 103.331 52.68 102.901 53.1C102.471 53.52 102.256 54.075 102.256 54.765C102.256 55.465 102.471 56.035 102.901 56.475C103.341 56.915 103.906 57.135 104.596 57.135Z" fill="#928F8E"/>
<path d="M118.141 54.54C118.141 54.67 118.131 54.855 118.111 55.095H111.826C111.936 55.685 112.221 56.155 112.681 56.505C113.151 56.845 113.731 57.015 114.421 57.015C115.301 57.015 116.026 56.725 116.596 56.145L117.601 57.3C117.241 57.73 116.786 58.055 116.236 58.275C115.686 58.495 115.066 58.605 114.376 58.605C113.496 58.605 112.721 58.43 112.051 58.08C111.381 57.73 110.861 57.245 110.491 56.625C110.131 55.995 109.951 55.285 109.951 54.495C109.951 53.715 110.126 53.015 110.476 52.395C110.836 51.765 111.331 51.275 111.961 50.925C112.591 50.575 113.301 50.4 114.091 50.4C114.871 50.4 115.566 50.575 116.176 50.925C116.796 51.265 117.276 51.75 117.616 52.38C117.966 53 118.141 53.72 118.141 54.54ZM114.091 51.9C113.491 51.9 112.981 52.08 112.561 52.44C112.151 52.79 111.901 53.26 111.811 53.85H116.356C116.276 53.27 116.031 52.8 115.621 52.44C115.211 52.08 114.701 51.9 114.091 51.9Z" fill="#928F8E"/>
<path d="M127.349 50.49V58.5H125.474V52.08H122.474L122.399 53.67C122.349 54.73 122.249 55.62 122.099 56.34C121.959 57.05 121.714 57.615 121.364 58.035C121.024 58.445 120.554 58.65 119.954 58.65C119.674 58.65 119.329 58.595 118.919 58.485L119.009 56.91C119.149 56.94 119.269 56.955 119.369 56.955C119.749 56.955 120.034 56.805 120.224 56.505C120.414 56.195 120.534 55.83 120.584 55.41C120.644 54.98 120.694 54.37 120.734 53.58L120.869 50.49H127.349Z" fill="#928F8E"/>
<path d="M133.894 53.13C134.914 53.13 135.694 53.36 136.234 53.82C136.784 54.28 137.059 54.93 137.059 55.77C137.059 56.65 136.759 57.33 136.159 57.81C135.559 58.29 134.714 58.525 133.624 58.515L129.874 58.5V50.49H131.749V53.115L133.894 53.13ZM133.459 57.135C134.009 57.145 134.429 57.03 134.719 56.79C135.009 56.55 135.154 56.2 135.154 55.74C135.154 55.29 135.014 54.96 134.734 54.75C134.454 54.54 134.029 54.43 133.459 54.42L131.749 54.405V57.12L133.459 57.135Z" fill="#928F8E"/>
</svg>
