<svg width="209" height="91" viewBox="0 0 209 91" fill="none" xmlns="http://www.w3.org/2000/svg">
<path d="M99.8554 37.685H95.1454V42.5H93.9004V32H95.1454V36.575H99.8554V32H101.1V42.5H99.8554V37.685Z" fill="#928F8E"/>
<path d="M109.93 41.555C109.75 41.715 109.535 41.865 109.285 42.005C109.045 42.145 108.78 42.265 108.49 42.365C108.2 42.465 107.895 42.54 107.575 42.59C107.265 42.65 106.95 42.68 106.63 42.68C106.03 42.68 105.5 42.59 105.04 42.41C104.58 42.22 104.195 41.955 103.885 41.615C103.575 41.265 103.34 40.85 103.18 40.37C103.02 39.89 102.94 39.35 102.94 38.75C102.94 38.12 103.025 37.56 103.195 37.07C103.375 36.58 103.63 36.17 103.96 35.84C104.29 35.51 104.69 35.26 105.16 35.09C105.63 34.91 106.155 34.82 106.735 34.82C107.155 34.82 107.57 34.875 107.98 34.985C108.39 35.095 108.75 35.305 109.06 35.615C109.38 35.915 109.625 36.335 109.795 36.875C109.965 37.405 110.025 38.095 109.975 38.945H104.17C104.17 39.845 104.41 40.52 104.89 40.97C105.38 41.41 106.03 41.63 106.84 41.63C107.11 41.63 107.375 41.6 107.635 41.54C107.905 41.47 108.16 41.39 108.4 41.3C108.64 41.21 108.85 41.11 109.03 41C109.22 40.89 109.365 40.79 109.465 40.7L109.93 41.555ZM106.765 35.81C106.435 35.81 106.12 35.845 105.82 35.915C105.53 35.985 105.27 36.105 105.04 36.275C104.82 36.435 104.635 36.65 104.485 36.92C104.345 37.18 104.255 37.505 104.215 37.895H108.88C108.83 37.235 108.615 36.725 108.235 36.365C107.865 35.995 107.375 35.81 106.765 35.81Z" fill="#928F8E"/>
<path d="M117.574 36.155C117.344 36.075 117.094 36.01 116.824 35.96C116.564 35.9 116.304 35.87 116.044 35.87C115.064 35.87 114.334 36.1 113.854 36.56C113.374 37.02 113.134 37.75 113.134 38.75C113.134 39.19 113.204 39.585 113.344 39.935C113.484 40.275 113.684 40.565 113.944 40.805C114.204 41.045 114.514 41.23 114.874 41.36C115.244 41.49 115.649 41.555 116.089 41.555C116.559 41.555 117.014 41.475 117.454 41.315C117.904 41.155 118.279 40.945 118.579 40.685L119.104 41.555C118.964 41.675 118.789 41.8 118.579 41.93C118.369 42.06 118.124 42.185 117.844 42.305C117.574 42.415 117.269 42.505 116.929 42.575C116.599 42.645 116.239 42.68 115.849 42.68C115.199 42.68 114.624 42.59 114.124 42.41C113.634 42.22 113.224 41.955 112.894 41.615C112.564 41.265 112.314 40.85 112.144 40.37C111.974 39.88 111.889 39.34 111.889 38.75C111.889 38.12 111.974 37.56 112.144 37.07C112.324 36.58 112.579 36.17 112.909 35.84C113.239 35.51 113.639 35.26 114.109 35.09C114.579 34.91 115.104 34.82 115.684 34.82C116.424 34.82 117.024 34.885 117.484 35.015C117.954 35.145 118.349 35.29 118.669 35.45L118.654 35.495V37.58H117.574V36.155Z" fill="#928F8E"/>
<path d="M120.763 35H128.203V37.805H127.183V36.02H125.068V41.495H126.883V42.5H122.023V41.495H123.898V36.02H121.783V37.805H120.763V35Z" fill="#928F8E"/>
<path d="M130.597 35.585C131.027 35.335 131.512 35.155 132.052 35.045C132.592 34.935 133.122 34.88 133.642 34.88C134.152 34.88 134.567 34.96 134.887 35.12C135.217 35.28 135.472 35.49 135.652 35.75C135.842 36 135.967 36.29 136.027 36.62C136.097 36.94 136.132 37.265 136.132 37.595C136.132 37.975 136.122 38.38 136.102 38.81C136.082 39.24 136.067 39.67 136.057 40.1C136.057 40.6 136.087 41.075 136.147 41.525H137.152V42.5H135.157L135.022 41.375H134.947C134.887 41.465 134.797 41.58 134.677 41.72C134.557 41.86 134.397 42 134.197 42.14C134.007 42.27 133.772 42.385 133.492 42.485C133.212 42.585 132.882 42.635 132.502 42.635C131.762 42.635 131.177 42.445 130.747 42.065C130.317 41.685 130.102 41.165 130.102 40.505C130.102 39.995 130.212 39.57 130.432 39.23C130.662 38.89 130.987 38.63 131.407 38.45C131.827 38.27 132.332 38.165 132.922 38.135C133.522 38.105 134.192 38.145 134.932 38.255C134.982 37.795 134.987 37.415 134.947 37.115C134.917 36.805 134.837 36.56 134.707 36.38C134.587 36.2 134.412 36.075 134.182 36.005C133.962 35.925 133.687 35.885 133.357 35.885C132.907 35.885 132.477 35.95 132.067 36.08C131.657 36.2 131.292 36.325 130.972 36.455L130.597 35.585ZM132.802 41.63C133.082 41.63 133.342 41.585 133.582 41.495C133.822 41.405 134.032 41.29 134.212 41.15C134.392 41.01 134.542 40.86 134.662 40.7C134.782 40.53 134.872 40.37 134.932 40.22V39.17C134.412 39.08 133.932 39.035 133.492 39.035C133.052 39.035 132.672 39.085 132.352 39.185C132.032 39.275 131.782 39.42 131.602 39.62C131.422 39.82 131.332 40.08 131.332 40.4C131.332 40.73 131.442 41.02 131.662 41.27C131.892 41.51 132.272 41.63 132.802 41.63Z" fill="#928F8E"/>
<path d="M144.481 39.17H140.446V42.5H139.291V35H140.446V38.12H144.481V35H145.651V42.5H144.481V39.17Z" fill="#928F8E"/>
<path d="M155.455 44.3H154.435V42.5H148.405V44.3H147.385V41.48H148.225C148.315 41.37 148.435 41.175 148.585 40.895C148.735 40.605 148.88 40.205 149.02 39.695C149.16 39.175 149.285 38.535 149.395 37.775C149.505 37.005 149.57 36.08 149.59 35H154.3V41.48H155.455V44.3ZM153.13 41.495V36.005H150.655C150.635 36.435 150.595 36.9 150.535 37.4C150.485 37.9 150.41 38.4 150.31 38.9C150.21 39.39 150.085 39.86 149.935 40.31C149.795 40.76 149.63 41.155 149.44 41.495H153.13Z" fill="#928F8E"/>
<path d="M157.579 35.585C158.009 35.335 158.494 35.155 159.034 35.045C159.574 34.935 160.104 34.88 160.624 34.88C161.134 34.88 161.549 34.96 161.869 35.12C162.199 35.28 162.454 35.49 162.634 35.75C162.824 36 162.949 36.29 163.009 36.62C163.079 36.94 163.114 37.265 163.114 37.595C163.114 37.975 163.104 38.38 163.084 38.81C163.064 39.24 163.049 39.67 163.039 40.1C163.039 40.6 163.069 41.075 163.129 41.525H164.134V42.5H162.139L162.004 41.375H161.929C161.869 41.465 161.779 41.58 161.659 41.72C161.539 41.86 161.379 42 161.179 42.14C160.989 42.27 160.754 42.385 160.474 42.485C160.194 42.585 159.864 42.635 159.484 42.635C158.744 42.635 158.159 42.445 157.729 42.065C157.299 41.685 157.084 41.165 157.084 40.505C157.084 39.995 157.194 39.57 157.414 39.23C157.644 38.89 157.969 38.63 158.389 38.45C158.809 38.27 159.314 38.165 159.904 38.135C160.504 38.105 161.174 38.145 161.914 38.255C161.964 37.795 161.969 37.415 161.929 37.115C161.899 36.805 161.819 36.56 161.689 36.38C161.569 36.2 161.394 36.075 161.164 36.005C160.944 35.925 160.669 35.885 160.339 35.885C159.889 35.885 159.459 35.95 159.049 36.08C158.639 36.2 158.274 36.325 157.954 36.455L157.579 35.585ZM159.784 41.63C160.064 41.63 160.324 41.585 160.564 41.495C160.804 41.405 161.014 41.29 161.194 41.15C161.374 41.01 161.524 40.86 161.644 40.7C161.764 40.53 161.854 40.37 161.914 40.22V39.17C161.394 39.08 160.914 39.035 160.474 39.035C160.034 39.035 159.654 39.085 159.334 39.185C159.014 39.275 158.764 39.42 158.584 39.62C158.404 39.82 158.314 40.08 158.314 40.4C158.314 40.73 158.424 41.02 158.644 41.27C158.874 41.51 159.254 41.63 159.784 41.63Z" fill="#928F8E"/>
<path d="M166.394 37.625C166.394 37.535 166.389 37.42 166.379 37.28C166.379 37.13 166.374 36.98 166.364 36.83C166.354 36.67 166.339 36.515 166.319 36.365C166.309 36.215 166.294 36.085 166.274 35.975H165.269V35H167.264L167.414 36.05H167.489C167.759 35.7 168.099 35.41 168.509 35.18C168.929 34.94 169.439 34.82 170.039 34.82C171.109 34.82 171.914 35.115 172.454 35.705C172.994 36.295 173.264 37.26 173.264 38.6C173.264 39.23 173.169 39.8 172.979 40.31C172.799 40.81 172.539 41.235 172.199 41.585C171.859 41.935 171.449 42.205 170.969 42.395C170.489 42.585 169.959 42.68 169.379 42.68C169.169 42.68 168.979 42.67 168.809 42.65C168.649 42.64 168.499 42.62 168.359 42.59C168.229 42.57 168.099 42.54 167.969 42.5C167.839 42.46 167.699 42.41 167.549 42.35V45.5H166.394V37.625ZM169.844 35.915C169.544 35.915 169.259 35.97 168.989 36.08C168.729 36.19 168.494 36.335 168.284 36.515C168.084 36.695 167.919 36.895 167.789 37.115C167.659 37.335 167.579 37.555 167.549 37.775V41.195C167.769 41.345 168.014 41.465 168.284 41.555C168.564 41.635 168.929 41.675 169.379 41.675C170.179 41.675 170.819 41.415 171.299 40.895C171.779 40.365 172.019 39.595 172.019 38.585C172.019 37.735 171.849 37.08 171.509 36.62C171.179 36.15 170.624 35.915 169.844 35.915Z" fill="#928F8E"/>
<path d="M174.728 35H182.168V37.805H181.148V36.02H179.033V41.495H180.848V42.5H175.988V41.495H177.863V36.02H175.748V37.805H174.728V35Z" fill="#928F8E"/>
<path d="M189.452 39.17H185.417V42.5H184.262V35H185.417V38.12H189.452V35H190.622V42.5H189.452V39.17Z" fill="#928F8E"/>
<path d="M193.556 35.585C193.986 35.335 194.471 35.155 195.011 35.045C195.551 34.935 196.081 34.88 196.601 34.88C197.111 34.88 197.526 34.96 197.846 35.12C198.176 35.28 198.431 35.49 198.611 35.75C198.801 36 198.926 36.29 198.986 36.62C199.056 36.94 199.091 37.265 199.091 37.595C199.091 37.975 199.081 38.38 199.061 38.81C199.041 39.24 199.026 39.67 199.016 40.1C199.016 40.6 199.046 41.075 199.106 41.525H200.111V42.5H198.116L197.981 41.375H197.906C197.846 41.465 197.756 41.58 197.636 41.72C197.516 41.86 197.356 42 197.156 42.14C196.966 42.27 196.731 42.385 196.451 42.485C196.171 42.585 195.841 42.635 195.461 42.635C194.721 42.635 194.136 42.445 193.706 42.065C193.276 41.685 193.061 41.165 193.061 40.505C193.061 39.995 193.171 39.57 193.391 39.23C193.621 38.89 193.946 38.63 194.366 38.45C194.786 38.27 195.291 38.165 195.881 38.135C196.481 38.105 197.151 38.145 197.891 38.255C197.941 37.795 197.946 37.415 197.906 37.115C197.876 36.805 197.796 36.56 197.666 36.38C197.546 36.2 197.371 36.075 197.141 36.005C196.921 35.925 196.646 35.885 196.316 35.885C195.866 35.885 195.436 35.95 195.026 36.08C194.616 36.2 194.251 36.325 193.931 36.455L193.556 35.585ZM195.761 41.63C196.041 41.63 196.301 41.585 196.541 41.495C196.781 41.405 196.991 41.29 197.171 41.15C197.351 41.01 197.501 40.86 197.621 40.7C197.741 40.53 197.831 40.37 197.891 40.22V39.17C197.371 39.08 196.891 39.035 196.451 39.035C196.011 39.035 195.631 39.085 195.311 39.185C194.991 39.275 194.741 39.42 194.561 39.62C194.381 39.82 194.291 40.08 194.291 40.4C194.291 40.73 194.401 41.02 194.621 41.27C194.851 41.51 195.231 41.63 195.761 41.63Z" fill="#928F8E"/>
<path d="M207.08 39.575H205.28L203.39 42.5H201.89V41.495H202.67L204.035 39.455C203.845 39.405 203.66 39.325 203.48 39.215C203.3 39.095 203.135 38.95 202.985 38.78C202.845 38.6 202.73 38.395 202.64 38.165C202.56 37.925 202.52 37.66 202.52 37.37C202.52 36.92 202.61 36.535 202.79 36.215C202.97 35.885 203.22 35.615 203.54 35.405C203.86 35.195 204.24 35.045 204.68 34.955C205.12 34.855 205.605 34.805 206.135 34.805C206.515 34.805 206.875 34.835 207.215 34.895C207.555 34.945 207.9 35 208.25 35.06V42.5H207.08V39.575ZM207.08 38.675V36.005C206.94 35.955 206.775 35.91 206.585 35.87C206.395 35.83 206.23 35.81 206.09 35.81C205.33 35.81 204.75 35.93 204.35 36.17C203.95 36.4 203.75 36.77 203.75 37.28C203.75 37.69 203.87 38.01 204.11 38.24C204.35 38.46 204.64 38.605 204.98 38.675H207.08Z" fill="#928F8E"/>
<path d="M99.8704 55.045L99.9004 53.98H99.8254L97.6654 57.415H97.2454L95.0554 53.98H94.9954L95.0704 55.03V59.5H93.9604V52H95.1454L97.5304 55.765H97.5604L99.8404 52H101.04V59.5H99.8704V55.045Z" fill="#928F8E"/>
<path d="M109.93 58.555C109.75 58.715 109.535 58.865 109.285 59.005C109.045 59.145 108.78 59.265 108.49 59.365C108.2 59.465 107.895 59.54 107.575 59.59C107.265 59.65 106.95 59.68 106.63 59.68C106.03 59.68 105.5 59.59 105.04 59.41C104.58 59.22 104.195 58.955 103.885 58.615C103.575 58.265 103.34 57.85 103.18 57.37C103.02 56.89 102.94 56.35 102.94 55.75C102.94 55.12 103.025 54.56 103.195 54.07C103.375 53.58 103.63 53.17 103.96 52.84C104.29 52.51 104.69 52.26 105.16 52.09C105.63 51.91 106.155 51.82 106.735 51.82C107.155 51.82 107.57 51.875 107.98 51.985C108.39 52.095 108.75 52.305 109.06 52.615C109.38 52.915 109.625 53.335 109.795 53.875C109.965 54.405 110.025 55.095 109.975 55.945H104.17C104.17 56.845 104.41 57.52 104.89 57.97C105.38 58.41 106.03 58.63 106.84 58.63C107.11 58.63 107.375 58.6 107.635 58.54C107.905 58.47 108.16 58.39 108.4 58.3C108.64 58.21 108.85 58.11 109.03 58C109.22 57.89 109.365 57.79 109.465 57.7L109.93 58.555ZM106.765 52.81C106.435 52.81 106.12 52.845 105.82 52.915C105.53 52.985 105.27 53.105 105.04 53.275C104.82 53.435 104.635 53.65 104.485 53.92C104.345 54.18 104.255 54.505 104.215 54.895H108.88C108.83 54.235 108.615 53.725 108.235 53.365C107.865 52.995 107.375 52.81 106.765 52.81Z" fill="#928F8E"/>
<path d="M112.984 53.365C113.364 52.865 113.779 52.515 114.229 52.315C114.689 52.115 115.259 52.015 115.939 52.015C116.969 52.015 117.759 52.325 118.309 52.945C118.859 53.565 119.134 54.445 119.134 55.585C119.134 56.905 118.814 57.92 118.174 58.63C117.534 59.33 116.639 59.68 115.489 59.68C113.059 59.68 111.844 58.105 111.844 54.955C111.844 54.095 111.889 53.36 111.979 52.75C112.079 52.14 112.219 51.625 112.399 51.205C112.579 50.785 112.799 50.45 113.059 50.2C113.319 49.95 113.614 49.755 113.944 49.615C114.274 49.465 114.634 49.36 115.024 49.3C115.414 49.24 115.834 49.19 116.284 49.15C116.864 49.11 117.309 49.055 117.619 48.985C117.929 48.915 118.184 48.795 118.384 48.625L118.564 49.66C118.454 49.75 118.334 49.825 118.204 49.885C118.074 49.945 117.914 49.995 117.724 50.035C117.534 50.075 117.309 50.11 117.049 50.14C116.799 50.17 116.499 50.195 116.149 50.215C115.659 50.245 115.224 50.295 114.844 50.365C114.464 50.435 114.139 50.58 113.869 50.8C113.609 51.01 113.399 51.32 113.239 51.73C113.089 52.13 112.989 52.675 112.939 53.365H112.984ZM113.089 55.765C113.089 56.135 113.134 56.495 113.224 56.845C113.324 57.195 113.469 57.505 113.659 57.775C113.859 58.045 114.109 58.265 114.409 58.435C114.709 58.595 115.069 58.675 115.489 58.675C116.289 58.675 116.889 58.415 117.289 57.895C117.689 57.375 117.889 56.635 117.889 55.675C117.889 55.305 117.844 54.96 117.754 54.64C117.674 54.32 117.549 54.04 117.379 53.8C117.209 53.56 116.984 53.37 116.704 53.23C116.434 53.09 116.114 53.02 115.744 53.02C114.814 53.02 114.139 53.255 113.719 53.725C113.299 54.185 113.089 54.865 113.089 55.765Z" fill="#928F8E"/>
<path d="M127.918 58.555C127.738 58.715 127.523 58.865 127.273 59.005C127.033 59.145 126.768 59.265 126.478 59.365C126.188 59.465 125.883 59.54 125.563 59.59C125.253 59.65 124.938 59.68 124.618 59.68C124.018 59.68 123.488 59.59 123.028 59.41C122.568 59.22 122.183 58.955 121.873 58.615C121.563 58.265 121.328 57.85 121.168 57.37C121.008 56.89 120.928 56.35 120.928 55.75C120.928 55.12 121.013 54.56 121.183 54.07C121.363 53.58 121.618 53.17 121.948 52.84C122.278 52.51 122.678 52.26 123.148 52.09C123.618 51.91 124.143 51.82 124.723 51.82C125.143 51.82 125.558 51.875 125.968 51.985C126.378 52.095 126.738 52.305 127.048 52.615C127.368 52.915 127.613 53.335 127.783 53.875C127.953 54.405 128.013 55.095 127.963 55.945H122.158C122.158 56.845 122.398 57.52 122.878 57.97C123.368 58.41 124.018 58.63 124.828 58.63C125.098 58.63 125.363 58.6 125.623 58.54C125.893 58.47 126.148 58.39 126.388 58.3C126.628 58.21 126.838 58.11 127.018 58C127.208 57.89 127.353 57.79 127.453 57.7L127.918 58.555ZM124.753 52.81C124.423 52.81 124.108 52.845 123.808 52.915C123.518 52.985 123.258 53.105 123.028 53.275C122.808 53.435 122.623 53.65 122.473 53.92C122.333 54.18 122.243 54.505 122.203 54.895H126.868C126.818 54.235 126.603 53.725 126.223 53.365C125.853 52.995 125.363 52.81 124.753 52.81Z" fill="#928F8E"/>
<path d="M135.367 53.02H132.772C132.732 53.93 132.682 54.785 132.622 55.585C132.562 56.375 132.447 57.065 132.277 57.655C132.117 58.245 131.882 58.71 131.572 59.05C131.272 59.39 130.862 59.56 130.342 59.56C130.142 59.56 129.997 59.55 129.907 59.53C129.817 59.51 129.707 59.475 129.577 59.425L129.772 58.315C129.962 58.365 130.137 58.39 130.297 58.39C130.467 58.39 130.617 58.33 130.747 58.21C130.877 58.09 130.992 57.9 131.092 57.64C131.202 57.37 131.292 56.995 131.362 56.515C131.442 56.025 131.507 55.415 131.557 54.685C131.607 53.945 131.647 53.05 131.677 52H136.537V59.5H135.367V53.02Z" fill="#928F8E"/>
<path d="M140.806 58.465C140.916 58.485 141.046 58.5 141.196 58.51C141.356 58.52 141.516 58.535 141.676 58.555C141.836 58.565 141.991 58.575 142.141 58.585C142.291 58.585 142.411 58.585 142.501 58.585C143.251 58.585 143.801 58.455 144.151 58.195C144.501 57.925 144.676 57.575 144.676 57.145C144.676 56.765 144.506 56.44 144.166 56.17C143.826 55.9 143.291 55.765 142.561 55.765C142.231 55.765 141.906 55.77 141.586 55.78C141.276 55.79 141.016 55.82 140.806 55.87V58.465ZM140.806 54.895C141.076 54.855 141.361 54.83 141.661 54.82C141.971 54.8 142.326 54.79 142.726 54.79C143.306 54.79 143.796 54.85 144.196 54.97C144.606 55.08 144.936 55.235 145.186 55.435C145.446 55.635 145.631 55.87 145.741 56.14C145.861 56.4 145.921 56.685 145.921 56.995C145.921 57.905 145.611 58.565 144.991 58.975C144.381 59.385 143.446 59.59 142.186 59.59C142.026 59.59 141.836 59.585 141.616 59.575C141.406 59.565 141.186 59.55 140.956 59.53C140.736 59.52 140.511 59.51 140.281 59.5C140.051 59.48 139.841 59.46 139.651 59.44V52H140.806V54.895Z" fill="#928F8E"/>
<path d="M78.7112 28.2476C78.7112 27.5478 78.3454 26.8988 77.7466 26.5365L47.9879 8.53007C47.3531 8.14594 46.5578 8.14485 45.9219 8.52724L16.2584 26.3652C15.6569 26.7268 15.2891 27.3773 15.2891 28.0791V62.9905C15.2891 63.6937 15.6583 64.3452 16.2616 64.7064L45.9335 82.4747C46.5633 82.8519 47.3492 82.8537 47.9808 82.4793L77.731 64.8444C78.3386 64.4843 78.7112 63.8303 78.7112 63.124V28.2476Z" fill="#928F8E"/>
<path fill-rule="evenodd" clip-rule="evenodd" d="M48.2468 8.10229L78.0054 26.1087C78.7539 26.5616 79.2112 27.3728 79.2112 28.2476V63.124C79.2112 64.0069 78.7455 64.8244 77.986 65.2746L48.2357 82.9094C47.4463 83.3774 46.4639 83.3752 45.6766 82.9037L16.0047 65.1354C15.2506 64.6838 14.7891 63.8695 14.7891 62.9905V28.0791C14.7891 27.2019 15.2489 26.3888 16.0007 25.9367L45.6642 8.09875C46.4591 7.62076 47.4532 7.62213 48.2468 8.10229ZM77.7466 26.5365C78.3454 26.8988 78.7112 27.5478 78.7112 28.2476V63.124C78.7112 63.8303 78.3386 64.4843 77.731 64.8444L47.9808 82.4793C47.3492 82.8537 46.5633 82.8519 45.9335 82.4747L16.2616 64.7064C15.6583 64.3452 15.2891 63.6937 15.2891 62.9905V28.0791C15.2891 27.3773 15.6569 26.7268 16.2584 26.3652L45.9219 8.52724C46.5578 8.14485 47.3531 8.14594 47.9879 8.53007L77.7466 26.5365Z" fill="#928F8E"/>
<path fill-rule="evenodd" clip-rule="evenodd" d="M46.951 11.4091L18.2891 28.6447V62.4238L46.9636 79.5948L75.7112 62.5543V28.8114L46.951 11.4091ZM77.7466 26.5365C78.3454 26.8988 78.7112 27.5478 78.7112 28.2476V63.124C78.7112 63.8303 78.3386 64.4843 77.731 64.8444L47.9808 82.4793C47.3492 82.8537 46.5633 82.8519 45.9335 82.4747L16.2616 64.7064C15.6583 64.3452 15.2891 63.6937 15.2891 62.9905V28.0791C15.2891 27.3773 15.6569 26.7268 16.2584 26.3652L45.9219 8.52724C46.5578 8.14485 47.3531 8.14594 47.9879 8.53007L77.7466 26.5365Z" fill="white"/>
<path fill-rule="evenodd" clip-rule="evenodd" d="M46.8704 12.0228L18.6328 28.9723V62.0822L46.8725 78.962L75.1901 62.207V29.1273L46.8704 12.0228ZM75.6901 28.8452L46.8712 11.4392L18.1328 28.6893V62.3659L46.8712 79.5437L75.6901 62.4921V28.8452Z" fill="#767372"/>
<path fill-rule="evenodd" clip-rule="evenodd" d="M47.9858 18.4622C47.9858 18.4499 47.9726 18.4423 47.962 18.4485L32.5732 27.3909H32.4912V27.4385L32.4819 27.4439V31.4114L32.4912 31.406V37.0225L26.2773 33.3677V37.4283L32.4912 41.083V42.3091L29.0283 40.2722V44.3328L32.4912 46.3697V62.3584L35.9912 64.8991V53.7124L45.1094 59.0755L45.1689 70.7906L45.2407 70.7903V70.9165H48.0039V59.1675L57.1733 53.6575V65.4341L60.5649 63.5431V42.5262V38.6026L48.0039 31.2974V18.4492L47.9858 18.4622V18.4622ZM57.1733 49.5742V40.5535L45.124 33.7549L45.1245 23.9261L35.9912 29.3338V39.0811L48.0039 45.844V51.4331V55.2713L57.1733 49.5742ZM45.062 49.7002L45.0552 48.3221L35.9912 43.1416V44.3677L45.062 49.7002ZM45.0889 55.003L45.0825 53.7754L35.9912 48.4283V49.6519L45.0889 55.003Z" fill="white"/>
<path fill-rule="evenodd" clip-rule="evenodd" d="M32.4819 27.4438L32.4912 27.4385V27.3908H32.5732L47.962 18.4484C47.9663 18.4459 47.971 18.4457 47.9751 18.4471C47.9765 18.4476 47.9779 18.4483 47.9792 18.4492C47.9831 18.452 47.9858 18.4566 47.9858 18.4621L48.0039 18.4492V31.2973L60.5649 38.6025V63.543L57.1733 65.4341V53.6574L48.0039 59.1675V70.9165H45.2412L45.2407 70.7903L45.1689 70.7905L45.1094 59.0754L35.9912 53.7124V64.8991L32.4912 62.3584V46.3696L29.0283 44.3327V40.2722L32.4912 42.3091V41.083L26.2773 37.4282V33.3677L32.4912 37.0224V31.406L32.4819 31.4114V27.4438ZM31.9912 32.2732L31.9819 32.2786V27.1555L31.9912 27.1502V26.8908H32.4385L47.7108 18.0161C47.7447 17.9964 47.7795 17.981 47.8146 17.9697L48.5039 17.4761V31.0097L61.0649 38.3149V63.8367L56.6733 66.2853V54.5412L48.5039 59.4503V71.4165H44.7407V71.292L44.6715 71.2922L44.6108 59.3623L36.4912 54.5865V65.8799L31.9912 62.6133V46.6556L28.5283 44.6187V39.398L31.9912 41.4349V41.369L25.7773 37.7142V32.4935L31.9912 36.1483V32.2732ZM47.5039 18.4621H47.4858C47.4858 18.5089 47.4922 18.5534 47.5039 18.5952V18.4621ZM44.624 34.0468L44.6245 24.8031L36.4912 29.6187V38.7887L48.5039 45.5517V54.372L56.6733 49.2962V40.8454L44.624 34.0468ZM57.1733 40.5534V49.5742L48.0039 55.2713V45.844L35.9912 39.081V29.3337L45.1245 23.926L45.124 33.7549L57.1733 40.5534ZM44.5566 48.613L36.4912 44.0033V44.0816L44.5577 48.8237L44.5566 48.613ZM45.0552 48.322L35.9912 43.1416V44.3677L45.062 49.7002L45.0552 48.322ZM44.584 54.0622L36.4912 49.3024V49.3658L44.5843 54.1261L44.584 54.0622ZM45.0825 53.7754L35.9912 48.4282V49.6518L45.0889 55.0029L45.0825 53.7754Z" fill="#787474"/>
</svg>
